<?xml version="1.0" encoding="utf-8"?>
<!-- Generator: Adobe Illustrator 19.0.0, SVG Export Plug-In . SVG Version: 6.00 Build 0)  -->
<svg version="1.1" id="Layer_1" xmlns="http://www.w3.org/2000/svg" xmlns:xlink="http://www.w3.org/1999/xlink" x="0px" y="0px"
	 viewBox="0 0 150 147.9" style="enable-background:new 0 0 150 147.9;" xml:space="preserve">
<style type="text/css">
	.st0{fill:#FCC2D3;}
	.st1{fill:#FEBE57;}
	.st2{fill:#FC3B11;}
	.st3{fill:#49DEC9;}
	.st4{fill:#E6EADE;}
	.st5{fill:#233F8A;}
</style>
<path class="st0" d="M0,125.3c0-5.5,0-11,0-16.5c0-0.9-0.1-1.7,1.3-1.6c1.2,0.1,2.9,0.4,3.6-0.2c1-0.8,0.3-2.6,0.3-3.9
	c0.1-2.6,0-5.2,0-7.9c0-1.2-0.6-2.8,0.3-3.5c0.7-0.6,2.1-0.2,3.2-0.2c0.9,0,0.9-0.5,0.9-1.2c0.1-1.3-0.6-3.1,0.4-3.9
	c0.8-0.6,2.4-0.2,3.6-0.2c1,0,1.3-0.3,1.3-1.3c-0.1-1.2-0.4-2.9,0.2-3.6c0.8-1,2.6-0.3,3.9-0.4c1.7-0.1,3.5-0.1,5.2,0
	c1.1,0.1,1.2-0.4,1.2-1.3c0-1.2-0.4-2.9,0.2-3.6c0.8-1,2.6-0.3,3.9-0.3c5,0,10,0,15,0c0.7,0,1.1,0.1,1.1,1c0,1.4-0.4,3.2,0.3,3.9
	c0.9,1,2.8,0.2,4.3,0.3c0.6,0,1.3,0,1.9,0c1.3,0.1,3.1-0.6,3.9,0.4c0.6,0.8,0.2,2.4,0.2,3.6c-0.1,1,0.3,1.2,1.3,1.3
	c1.3,0.1,3.1-0.7,3.9,0.4c0.6,0.8,0.2,2.4,0.1,3.6c-0.1,1.1,0.5,1.2,1.3,1.2c1.2,0,2.9-0.4,3.6,0.2c0.9,0.8,0.3,2.6,0.3,3.9
	c0.1,2.2,0,4.5,0,6.7c0,1.5-0.5,3.3,0.1,4.4c0.8,1.2,2.8,0.3,4.2,0.4c0.6,0.1,0.9,0.2,0.9,0.8c0,0.4,0,0.7,0,1.1
	c0,10.7,0,21.5,0,32.2c0,1.8,0,1.8-1.8,1.8c-0.1,0-0.3,0-0.4,0c-1,0.1-2.3-0.5-2.8,0.3c-0.5,0.6-0.3,1.9-0.2,2.9
	c0.1,1.2-0.4,1.4-1.5,1.4c-2.5-0.1-5-0.1-7.5,0c-1.5,0.1-1.7-0.5-1.6-1.7c0.1-0.6,0-1.3,0-1.9c0.1-0.9-0.4-1-1.1-1
	c-0.9,0-1.8,0-2.6,0c-1.1,0.1-1.6-0.1-1.5-1.4c0.1-1.2,0.4-2.9-0.2-3.6c-0.9-0.9-2.6-0.2-3.9-0.3c-0.8-0.1-1.1,0.2-1.1,1
	c0,0.5,0,1,0,1.5c0,2.6,0,2.6-2.8,2.7c-1.7,0-1.7,0-1.7,1.9c0,0.4-0.1,0.8,0,1.1c0.4,1.6-0.6,1.6-1.7,1.5c-1.9-0.1-3.7,0-5.6,0
	c-3.1,0-3.1,0-3.2-3c0-1.1-0.2-1.6-1.4-1.5c-1.2,0.1-2.9,0.4-3.5-0.3c-0.6-0.6-0.4-2.3-0.3-3.5c0.1-1.2-0.3-1.6-1.5-1.4
	c-0.2,0-0.5,0-0.7,0c-3,0-3,0-3.1,3.2c0,0.5,0,1,0,1.5c0,0.4-0.3,0.6-0.7,0.6c-0.7,0-1.5,0-2.2,0c-2.2,0-2.2,0-2.3,2.1
	c0,0.4,0,0.8,0,1.1c0.1,0.9-0.1,1.4-1.2,1.3c-1.5-0.1-3,0-4.5,0c-1.2,0-2.8,0.4-3.7-0.2c-1-0.6-0.3-2.3-0.4-3.5
	c0-0.6-0.3-0.9-0.9-0.9c-0.1,0-0.2,0-0.4,0c-1.2,0-2.9,0.4-3.6-0.2c-1-0.8-0.4-2.6-0.4-3.9C0,134.6,0,129.9,0,125.3z M56.3,117
	c1.4,0,2.7,0,4.1,0c0.7,0,1.2-0.1,1.2-1c0-4.4,0-8.7,0-13.1c0-0.8-0.4-1-1.1-1c-1.3,0-3.2,0.6-3.9-0.3c-0.7-0.9-0.3-2.6-0.2-4
	c0-0.9-0.4-1-1.2-1c-2.7,0-5.5,0-8.2,0c-0.7,0-1.2,0.1-1.1,1c0,0.4,0,0.7,0,1.1c0,3.1,0,3.1-3,3.2c-1,0-1.6,0.1-1.5,1.4
	c0.1,3.1,0,6.2,0,9.3c0,1.4-0.4,3.2,0.2,3.9c0.9,1,2.8,0.2,4.2,0.4c0.1,1.7-0.3,3.4,0.3,5.1c1.6,0,3.2,0.1,4.8,0.1
	c0.1,0,0.2,0,0.4,0c1.6,0,3.2-0.1,4.8-0.1C56.5,120.4,56.1,118.7,56.3,117z M15,117c0.1,1.7-0.3,3.4,0.3,5.1c1.6,0,3.2,0.1,4.8,0.1
	c0.1,0,0.2,0,0.4,0c1.6,0,3.2-0.1,4.8-0.1c0.5-1.7,0.1-3.4,0.3-5.1c1.4,0,2.7,0,4.1,0c0.7,0,1.2-0.1,1.2-1c0-4.4,0-8.7,0-13.1
	c0-0.9-0.4-1-1.1-1c-1.3-0.1-3.2,0.6-3.9-0.3c-0.7-0.9-0.3-2.6-0.2-4c0-0.9-0.4-1-1.2-1c-2.7,0-5.5,0-8.2,0c-0.7,0-1.2,0.1-1.1,1
	c0,0.4,0,0.7,0,1.1c0,3.1,0,3.1-3,3.2c-0.2,0-0.5,0-0.7,0c-1-0.1-1.6,0.1-1.5,1.4c0.1,2.9,0,5.7,0,8.6c0,1.6,0.1,3.2,0.1,4.8
	C11.6,117.3,13.3,116.9,15,117z"/>
<path class="st1" d="M61.5,15.8c1.7,0.1,3.4-0.3,5.1,0.3c0,1.6,0.1,3.2,0.1,4.8c0,3.1,0,6.2,0,9.4c0,0.9,0.1,1.5,1.2,1.3
	c0.1,0,0.3,0,0.4,0c1.2,0.1,2.8-0.6,3.5,0.4c0.6,0.7,0.2,2.1,0.2,3.3c0,10.2,0,20.5,0,30.7c0,1.3-0.2,1.9-1.6,1.7
	c-0.9-0.1-1.7,0-2.6,0c-0.8,0-1,0.3-1.1,1.1c0,1.1,0.5,2.6-0.3,3.2c-0.7,0.5-2.1,0.2-3.2,0.3c-1.1,0-2.2,0-3.4,0
	c-1.1,0-2.5,0.3-3.3-0.2c-0.9-0.6-0.4-2.1-0.3-3.2c0-1.1-0.5-1.1-1.4-1.2c-1.1-0.1-2.5,0.6-3.1-0.4c-0.4-0.7-0.1-1.9-0.1-2.9
	c0-1.8,0-1.8-1.8-1.8c-3.4-0.1-3.4-0.1-3.5,3.5c0,1.7,0,1.7-1.8,1.8c-0.2,0-0.5,0-0.7,0c-2.6,0-2.6,0-2.7,2.8
	C41.2,72,41.2,72,39.4,72c-1.5,0-3,0-4.5,0c-1.2,0-2.8,0.4-3.7-0.1c-1.1-0.6-0.4-2.3-0.4-3.5c0-0.9-0.5-0.9-1.2-0.9
	c-1.3-0.1-3.1,0.6-3.9-0.4c-0.6-0.8-0.2-2.4-0.2-3.6c0.1-1-0.3-1.3-1.3-1.2c-1.2,0.1-2.8-0.4-3.6,0.2c-0.9,0.7-0.4,2.3-0.3,3.5
	c0.1,1.5-0.5,1.7-1.7,1.6c-0.6-0.1-1.3,0-1.9,0c-0.9-0.1-0.9,0.4-1,1.1c0,1.1,0.5,2.6-0.3,3.2c-0.8,0.5-2.1,0.2-3.3,0.2
	c-1.9,0-3.7,0-5.6,0c-0.9,0-1.4-0.2-1.3-1.2c0.1-0.7,0-1.5,0-2.2c0.1-0.8-0.2-1.1-1-1.1c-1.3,0-2.7-0.1-4-0.2
	c-0.1-1.5-0.2-3-0.2-4.4C0,53,0,43.1,0,33.3c0-1.7,0-1.7,1.8-1.8c1.1,0,2.6,0.5,3.2-0.3c0.5-0.7,0.2-2.1,0.2-3.2
	c0-3.6,0.1-7.2,0-10.9c0-1.3,0.5-1.4,1.5-1.4c1.2,0.1,2.5,0,3.7,0c0,2.1,0,4.2,0,6.4c0,1.3-0.6,3.1,0.3,3.9c0.7,0.6,2.4,0.2,3.6,0.2
	c0.9,0,1.3,0.1,1.3,1.2c0,1.3-0.7,3.1,0.4,3.9c0.9,0.6,2.6,0.2,4,0.2c1.4,0,2.8-0.1,4.1,0c1,0.1,1.3-0.3,1.3-1.3
	c-0.1-1.2-0.4-2.9,0.2-3.6c0.8-1,2.6-0.4,3.9-0.4c1.1,0,1.2-0.4,1.2-1.3c0-3.1,0-6.2,0-9.4c0-1.6-0.1-3.2-0.1-4.8
	c-1.7-0.5-3.4-0.1-5.1-0.3c0-1.8,0-3.5,0-5.3c0.1-1.7-0.3-3.4,0.3-5.1C27.4,0.1,29,0,30.6,0c4.6,0,9.2,0,13.8,0c2.1,0,2.1,0,2.1,2.3
	c0,1,0,2,0,3c0,1.8,0,3.5,0,5.3c-1.4,0-2.7,0-4.1,0c-0.7,0-1.1,0.1-1.1,1c0,4.6,0,9.2,0,13.9c0,0.6,0.1,0.9,0.8,0.9
	c1.4,0,3.1-0.5,4,0.2c1.2,0.9,0.3,2.8,0.4,4.2c0.1,0.6,0.3,0.9,0.9,0.9c1.7,0,3.5,0,5.2,0c1.1,0,2.6,0.4,3.3-0.2
	c0.9-0.7,0.3-2.3,0.4-3.5c0-0.2,0-0.5,0-0.7c0-0.7,0.4-0.8,0.9-0.8c1.4-0.2,3.4,0.8,4.2-0.5c0.7-1.1,0.1-2.9,0.1-4.4
	C61.5,19.5,61.5,17.6,61.5,15.8z"/>
<path class="st2" d="M87.8,91.5c0-0.1,0-0.2,0-0.4c0-1.5-0.5-3.3,0.1-4.4c0.8-1.2,2.8-0.3,4.2-0.5c0.5-0.1,1-0.1,0.9-0.8
	c0-0.2,0-0.5,0-0.7c0.1-1.2-0.6-2.8,0.4-3.5c0.7-0.6,2.1-0.2,3.3-0.2c2,0,4,0,6,0c0.6,0,0.9-0.2,0.9-0.9c0-0.1,0-0.2,0-0.4
	c0-1.2-0.4-2.9,0.2-3.6c0.8-1,2.6-0.4,3.9-0.4c4.9-0.1,9.7,0,14.6,0c0.9,0,1.7-0.1,1.6,1.3c-0.1,1.2-0.4,2.9,0.2,3.6
	c0.8,1,2.6,0.2,3.9,0.4c0.5,0,1,0,1.5,0c1.5,0,3.3-0.5,4.4,0.1c1.2,0.8,0.3,2.7,0.4,4.2c0.1,0.9,0.5,0.9,1.2,0.9
	c1.3,0.1,3.1-0.6,3.9,0.4c0.6,0.8,0.2,2.4,0.2,3.6c0,1,0.3,1.2,1.2,1.3c1.3,0,3.1-0.7,3.9,0.4c0.6,0.8,0.2,2.4,0.2,3.6
	c0,3.5,0,7,0,10.5c0,1,0.4,1.2,1.3,1.2c1.2,0,2.9-0.4,3.6,0.2c1,0.8,0.3,2.6,0.4,3.9c0,11.4,0,22.7,0,34.1c0,2.3,0,2.3-2.4,2.3
	c-0.6,0-1.3,0-1.9,0c-0.9,0.1-1-0.4-1-1.2c0-0.5,0-1,0-1.5c0-1.8,0-1.8-1.7-1.9c-1.1,0-2.5,0.3-3.2-0.3c-0.8-0.6-0.3-2.1-0.3-3.2
	c0-2.1,0.1-1.8-1.8-1.8c-3.4,0-3.4-0.1-3.5,3.5c0,1.7,0,1.7-1.8,1.7c-0.1,0-0.2,0-0.4,0c-2.9,0-2.9,0-3,2.8c0,0.2,0,0.5,0,0.7
	c0.1,0.9-0.5,1-1.2,0.9c-0.2,0-0.5,0-0.7,0c-2.7,0-5.5,0-8.2,0c-0.8-2.7-0.3-5.4-0.3-8.1c0-1.3-0.2-1.8-1.6-1.7
	c-2.6,0.2-5.2,0.1-7.8,0.1c-0.8,2.6-0.2,5.2-0.3,7.7c-0.1,2.3,0,2-2,2c-1.6,0-3.2,0-4.9,0c-1.1,0-2.5,0.3-3.3-0.2
	c-0.9-0.6-0.4-2.1-0.3-3.1c0-1.1-0.5-1.1-1.3-1.2c-1.3-0.1-3,0.7-3.8-0.4c-0.6-0.9-0.1-2.4-0.1-3.7c0-0.8-0.2-1.2-1-1.1
	c-0.2,0-0.5,0-0.7,0c-3.4-0.1-3.5-0.1-3.5,3.5c0,2.1,0,1.8-1.8,1.8c-0.2,0-0.5,0-0.7,0c-2.6,0-2.6,0-2.7,2.8
	c-0.1,1.7-0.1,1.7-1.8,1.7c-0.5,0-1,0-1.5,0c-0.7,0.1-1.2-0.1-1.2-0.9c0-0.2,0-0.5,0-0.7c0-12.4,0-24.7,0-37.1c0-1.7,0-1.7,1.9-1.7
	c0.9,0,1.7,0,2.6,0c0.1,1.4-0.6,3.4,0.3,4.2c0.9,0.7,2.8,0.3,4.2,0.3c0.2,0,0.5,0,0.7,0c0.1,1.7-0.3,3.4,0.3,5.1
	c1.6,0,3.2,0.1,4.8,0.1c1.4,0,2.7,0,4.1,0c0.9,0,1.4-0.1,1.3-1.2c-0.1-1.2-0.5-2.8,0.1-3.6c0.8-1.1,2.5-0.3,3.9-0.4
	c1,0,1.3-0.3,1.3-1.3c-0.1-3.4,0-6.7,0-10.1c0-1.1,0.4-2.6-0.2-3.3c-0.7-0.9-2.3-0.3-3.5-0.4c-0.2,0-0.5,0-0.7,0
	c-0.7,0-0.8-0.4-0.8-0.9c-0.2-1.4,0.8-3.4-0.5-4.2c-1.1-0.7-2.9-0.1-4.4-0.1C91.5,91.5,89.6,91.5,87.8,91.5z M114,102
	c0,1.7,0,3.4,0,5.2c0,1.5-0.4,3.3,0.3,4.2c0.8,1,2.8,0.2,4.2,0.3c0.1,1.7-0.3,3.4,0.2,5.1c1.6,0,3.2,0.1,4.8,0.1c0.4,0,0.7,0,1.1,0
	c1.4,0,3.1,0.4,4-0.2c1-0.7,0.3-2.5,0.3-3.9c0-0.7,0.1-1.1,1-1.2c1.4-0.1,3.4,0.8,4.2-0.4c0.7-1.1,0.1-2.9,0.1-4.4c0-2,0-4,0-6
	c0-1.3,0.6-3-0.3-3.9c-0.7-0.6-2.4-0.3-3.6-0.2c-1.3,0.1-1.4-0.5-1.4-1.5c0-1.2,0.6-2.9-0.3-3.5c-0.8-0.6-2.4-0.2-3.6-0.2
	c-0.7,0-1.5,0-2.2,0c-1.4,0-3.1-0.4-4,0.2c-1,0.7-0.3,2.5-0.3,3.9c0,0.7-0.1,1.2-1,1.2c-1.1,0-2.6-0.4-3.2,0.2
	c-0.9,0.8-0.2,2.3-0.3,3.5C114,101,114,101.5,114,102z"/>
<path class="st3" d="M144.8,31.5c1.7,0.1,3.4-0.3,5.1,0.3c0,1.6,0.1,3.2,0.1,4.8c0,11.1,0,22.2,0,33.3c0,2,0,2-1.9,2.1
	c-0.6,0-1.3-0.1-1.9,0c-1.1,0.1-1.6-0.2-1.5-1.4c0.1-1,0.3-2.2-0.2-2.9c-0.6-0.8-1.9-0.1-2.8-0.3c-0.4,0-0.8,0-1.1,0
	c-0.8,0.1-1.1-0.3-1.1-1.1c0-0.6,0-1.2,0-1.9c0-2.3,0-2.3-2.4-2.3c-2.8,0-2.8,0-2.9,3c0,2.2,0,2.2-2.1,2.3c-0.6,0-1.3,0-1.9,0
	c-0.9-0.1-1.5,0.1-1.3,1.2c0.1,0.6,0,1.3,0,1.9c0.1,1.1-0.2,1.5-1.4,1.5c-2.4-0.1-4.7-0.1-7.1,0c-0.9,0-1.3-0.2-1.3-1.2
	c0.1-2.5,0-5,0-7.5c0-0.8-0.3-1.1-1.1-1.1c-2.7,0-5.5,0.1-8.2,0c-1,0-1.2,0.4-1.2,1.3c0.1,2.5,0,5,0,7.5c0,0.8-0.4,1-1.1,1
	c-2.7,0-5.5-0.1-8.2,0c-1.1,0-1.2-0.5-1.2-1.3c0-0.6,0-1.3,0-1.9c0.1-0.9-0.1-1.4-1.2-1.4c-1.3,0-3.1,0.6-3.9-0.3
	c-0.6-0.7-0.2-2.4-0.2-3.6c0-0.9-0.2-1.4-1.2-1.3c-0.7,0.1-1.5,0.1-2.2,0c-0.8-0.1-1.1,0.3-1,1.1c0,0.2,0,0.5,0,0.7
	c-0.1,1.1,0.5,2.6-0.3,3.2c-0.7,0.6-2.1,0.2-3.2,0.3c-1.7,0.1-1.7,0-1.7,1.9c0,0.6,0,1.3,0,1.9c0,0.5-0.2,0.7-0.6,0.8
	c-1.4,0-2.7,0-4.1,0c-0.4,0-0.6-0.3-0.6-0.8c0-0.4,0-0.7,0-1.1c0-12.2,0-24.5,0-36.7c0-1.8,0-1.8,1.7-1.9c1.1,0,2.5,0.3,3.2-0.3
	c0.8-0.6,0.3-2.1,0.3-3.2c0-3.7,0-7.5,0-11.2c0-0.8,0.2-1.2,1-1.1c0.2,0,0.5,0,0.7,0c1.1-0.1,2.6,0.5,3.2-0.3
	c0.6-0.7,0.2-2.1,0.3-3.2c0.1-1.7,0-1.7,1.8-1.8c0.6,0,1.2,0,1.9,0c0.7,0,0.8-0.4,0.8-0.9c0-1.4,0.1-2.7,0.1-4.1
	c1.6-0.6,3.2-0.1,4.8-0.3c0.2,0,0.5,0,0.7,0c1.5,0,3.3,0.5,4.4-0.1c1.2-0.8,0.3-2.8,0.4-4.2C103.5,0,104,0,104.7,0c3.5,0,7,0,10.5,0
	c2.7,0,5.5,0,8.2,0c0.8,0,1.1,0.2,1.1,1c0,1.3,0.1,2.7,0.2,4c1.5,0.1,2.9,0.1,4.4,0.2c0.2,0,0.5,0,0.7,0c1.4,0,3.1-0.4,4,0.2
	c1,0.7,0.3,2.5,0.4,3.9c0,1.1,0.4,1.2,1.3,1.2c1.2,0,2.9-0.4,3.6,0.2c1,0.8,0.2,2.6,0.4,3.9c0,0.4,0,0.7,0,1.1c-2.9,0-5.7,0-8.6,0
	c-1.8,0-1.8,0-1.9,1.7c0,1.1,0.3,2.5-0.2,3.2c-0.6,0.8-2.1,0.3-3.2,0.3c-0.8,0-1.1,0.2-1.1,1c0,3.6,0,7.2,0,10.9c0,3,0,3.1,3.1,3.1
	c1.2,0,1.5,0.4,1.4,1.5c0,1.2-0.6,2.9,0.3,3.5c0.8,0.6,2.4,0.2,3.6,0.3c0.5,0,1,0,1.5,0c1.6,0,3.2-0.1,4.8-0.1
	c0.5-1.7,0.1-3.4,0.3-5.1c0.2,0,0.5,0,0.7,0c1.4-0.1,3.3,0.4,4.2-0.3C145.4,34.9,144.6,32.9,144.8,31.5z M114,26.3
	c0-0.4,0-0.7,0-1.1c-0.1-1.3,0.6-3-0.3-3.9c-0.7-0.6-2.4-0.2-3.6-0.2c-0.8,0-1.4,0-1.4-1.2c0-1.3,0.7-3.1-0.3-3.9
	c-0.9-0.7-2.6-0.2-4-0.2c-1.5,0-3,0-4.5,0c-1.1-0.1-2,0-1.7,1.5c0.2,1.1,0.5,2.5-0.1,3.3c-0.7,1-2.3,0.4-3.5,0.4
	c-1.2,0-1.8,0.1-1.7,1.6c0.2,3.1,0,6.2,0.1,9.3c0,1.3-0.6,3,0.3,3.9c0.7,0.6,2.4,0.2,3.6,0.2c0.8,0,1.4,0,1.4,1.2
	c0,1.3-0.7,3.1,0.3,3.9c0.9,0.7,2.6,0.2,4,0.2c0.4,0,0.7,0,1.1,0c1.6,0,3.2-0.1,4.8-0.1c0.5-1.7,0.1-3.4,0.2-5.1
	c1.4,0,2.7-0.1,4.1,0c1,0.1,1.2-0.4,1.2-1.3C114,31.9,114,29.1,114,26.3z"/>
<path class="st4" d="M87.8,91.5c1.9,0,3.7,0,5.6,0c1.5,0,3.3-0.5,4.4,0.1c1.2,0.8,0.3,2.8,0.5,4.2c0.1,0.5,0.1,1,0.8,0.9
	c0.2,0,0.5,0,0.7,0c1.2,0.1,2.8-0.6,3.5,0.4c0.6,0.7,0.2,2.1,0.2,3.3c0,3.4,0,6.7,0,10.1c0,1-0.3,1.2-1.3,1.3
	c-1.3,0-3.1-0.7-3.9,0.4c-0.6,0.8-0.2,2.4-0.1,3.6c0.1,1.1-0.4,1.2-1.3,1.2c-1.4-0.1-2.7,0-4.1,0c-1.6,0-3.2-0.1-4.8-0.1
	c-0.5-1.7-0.1-3.4-0.3-5.1c1.7-0.1,3.4,0.3,5.1-0.3c0-1.6,0.1-3.2,0.1-4.8c0-0.6,0-1.2,0-1.9c0-2.8,0-2.8-2.6-2.8
	c-2.6,0-5.2,0-7.9,0c0-1.7,0-3.5,0-5.2c1.7-0.1,3.4-0.1,5.1-0.2C87.6,94.9,87.7,93.2,87.8,91.5z"/>
<path class="st4" d="M25.5,10.5c1.7,0.1,3.4-0.3,5.1,0.3c0,1.6,0.1,3.2,0.1,4.8c0,3.1,0,6.2,0,9.4c0,0.9-0.1,1.3-1.2,1.3
	c-1.3,0-3.1-0.7-3.9,0.4c-0.6,0.8-0.2,2.4-0.2,3.6c0,1-0.3,1.3-1.3,1.3c-1.4-0.1-2.7,0-4.1,0c-1.4,0-3.1,0.4-4-0.2
	c-1-0.7-0.3-2.5-0.4-3.9c0-1.1-0.4-1.2-1.3-1.2c-1.2,0-2.9,0.4-3.6-0.2c-1-0.8-0.3-2.6-0.3-3.9c-0.1-2.1,0-4.2,0-6.4
	c0.1-1.7,0.1-3.4,0.2-5.1c1.7-0.1,3.4-0.1,5.1-0.2c0,0.1,0,0.3,0,0.4c0.2,1.6-0.3,3.2,0.3,4.8c1.5,0,3,0.1,4.4,0.1
	c1.6,0,3.2-0.1,4.8-0.1C25.8,13.9,25.4,12.2,25.5,10.5z"/>
<path class="st4" d="M61.5,15.8c0,1.9,0,3.7,0,5.6c0,1.5,0.5,3.3-0.1,4.4c-0.8,1.2-2.8,0.3-4.2,0.5c-0.5,0.1-1,0.1-0.9,0.8
	c0,0.2,0,0.5,0,0.7c-0.1,1.2,0.6,2.8-0.4,3.5c-0.7,0.6-2.1,0.2-3.3,0.2c-1.7,0-3.5,0-5.2,0c-0.6,0-0.8-0.3-0.9-0.9
	c-0.1-1.5,0.7-3.4-0.4-4.2c-0.9-0.7-2.6-0.2-4-0.2c-0.7,0-0.8-0.4-0.8-0.9c0-4.6,0-9.2,0-13.9c0-0.9,0.4-1,1.1-1c1.4,0,2.7,0,4.1,0
	c0,0.1,0,0.3,0,0.4c0.2,1.6-0.3,3.2,0.3,4.8c1.5,0,3,0.1,4.4,0.1c1.6,0,3.2-0.1,4.8-0.1c0.5-1.7,0.1-3.4,0.3-5.1
	c1.7,0.1,3.4,0.1,5.1,0.2C61.4,12.4,61.4,14.1,61.5,15.8z"/>
<path class="st4" d="M139.5,36c-0.1,1.7,0.3,3.4-0.3,5.1c-1.6,0-3.2,0.1-4.8,0.1c-0.5,0-1,0-1.5,0c-1.2,0-2.8,0.3-3.6-0.3
	c-0.9-0.7-0.3-2.3-0.3-3.5c0-1.1-0.3-1.5-1.4-1.5c-3.1,0-3.1-0.1-3.1-3.1c0-3.6,0-7.2,0-10.9c0-0.8,0.3-1,1.1-1
	c1.1,0,2.6,0.5,3.2-0.3c0.5-0.7,0.2-2.1,0.2-3.2c0-1.7,0-1.7,1.9-1.7c2.9,0,5.7,0,8.6,0c0.1,1.7,0.1,3.4,0.2,5.1
	c1.7,0.1,3.4,0.1,5.1,0.2c0,1.8,0,3.5,0,5.2c-2,0-4-0.1-6,0c-1.5,0.1-3.4-0.7-4.2,0.3c-0.7,1-0.3,2.8-0.3,4.3c0,1.6,0.1,3.2,0.1,4.8
	C136.1,36.3,137.8,35.9,139.5,36z"/>
<path class="st5" d="M25.5,10.5c-0.1,1.7,0.3,3.4-0.3,5.1c-1.6,0-3.2,0.1-4.8,0.1c-1.5,0-3-0.1-4.4-0.1c-0.6-1.6-0.1-3.2-0.3-4.8
	c0-0.1,0-0.2,0-0.4c0.1-1.7-0.2-3.4,0.2-5.1c1.7-0.1,3.4-0.1,5.1-0.2c1.5,0,3,0,4.4,0C25.5,7,25.5,8.8,25.5,10.5z"/>
<path class="st5" d="M82.5,102c2.6,0,5.2,0,7.9,0c2.6,0,2.6,0,2.6,2.8c0,0.6,0,1.2,0,1.9c0,1.6-0.1,3.2-0.1,4.8
	c-1.7,0.5-3.4,0.1-5.1,0.3c-0.2,0-0.5,0-0.7,0c-1.4-0.1-3.3,0.4-4.2-0.3c-1-0.8-0.2-2.7-0.3-4.2C82.5,105.5,82.5,103.8,82.5,102z"/>
<path class="st5" d="M139.5,36c-1.7-0.1-3.4,0.3-5.1-0.3c0-1.6-0.1-3.2-0.1-4.8c0-1.5-0.5-3.4,0.3-4.3c0.8-1,2.8-0.3,4.2-0.3
	c2-0.1,4,0,6,0c0,1.8,0,3.5,0,5.2c-0.1,1.4,0.6,3.4-0.3,4.2c-0.9,0.7-2.8,0.3-4.2,0.3C140,36,139.7,36,139.5,36z"/>
<path class="st5" d="M56.3,10.5c-0.1,1.7,0.3,3.4-0.3,5.1c-1.6,0-3.2,0.1-4.8,0.1c-1.5,0-3-0.1-4.4-0.1c-0.6-1.6-0.1-3.2-0.3-4.8
	c0-0.1,0-0.2,0-0.4c0-1.8,0-3.5,0-5.3c2.8,0,5.7,0,8.5,0c0.9,0,1.3,0.2,1.3,1.2C56.2,7.8,56.3,9.2,56.3,10.5z"/>
<path class="st2" d="M87.8,91.5c-0.1,1.7-0.1,3.4-0.2,5.1c-1.7,0.1-3.4,0.1-5.1,0.2c0.1-1.7,0.1-3.4,0.2-5.1
	C84.4,91.6,86.1,91.6,87.8,91.5z"/>
<path class="st3" d="M144.8,21c-1.7-0.1-3.4-0.1-5.1-0.2c-0.1-1.7-0.1-3.4-0.2-5.1c1.7,0.1,3.4,0.1,5.1,0.2
	C144.6,17.6,144.7,19.3,144.8,21z"/>
<path class="st4" d="M15,117c-1.7-0.1-3.4,0.3-5.1-0.3c0-1.6-0.1-3.2-0.1-4.8c0-2.9,0.1-5.7,0-8.6c0-1.2,0.5-1.5,1.5-1.4
	c0.2,0,0.5,0,0.7,0c3,0,3,0,3-3.2c0-0.4,0-0.7,0-1.1c-0.1-0.9,0.4-1,1.1-1c2.7,0,5.5,0,8.2,0c0.7,0,1.2,0.1,1.2,1
	c0,1.4-0.4,3.1,0.2,4c0.7,1,2.5,0.3,3.9,0.3c0.7,0,1.1,0.1,1.1,1c0,4.4,0,8.7,0,13.1c0,0.9-0.4,1-1.2,1c-1.4,0-2.7,0-4.1,0
	c-0.1-1.7,0.3-3.4-0.3-5.1c-1.6,0-3.2-0.1-4.8-0.1c-0.1,0-0.2,0-0.4,0c-1.6,0-3.2,0.1-4.8,0.1C14.7,113.6,15.1,115.3,15,117z"/>
<path class="st4" d="M45.8,117c-1.5-0.1-3.3,0.7-4.2-0.4c-0.7-0.8-0.2-2.6-0.2-3.9c0-3.1,0.1-6.2,0-9.3c0-1.2,0.5-1.4,1.5-1.4
	c3,0,3-0.1,3-3.2c0-0.4,0-0.7,0-1.1c-0.1-0.9,0.4-1,1.1-1c2.7,0,5.5,0,8.2,0c0.7,0,1.2,0.1,1.2,1c0,1.4-0.4,3.1,0.2,4
	c0.7,1,2.5,0.3,3.9,0.3c0.7,0,1.1,0.2,1.1,1c0,4.4,0,8.7,0,13.1c0,0.9-0.4,1-1.2,1c-1.4,0-2.7,0-4.1,0c-0.1-1.7,0.3-3.4-0.3-5.1
	c-1.6,0-3.2-0.1-4.8-0.1c-0.1,0-0.2,0-0.4,0c-1.6,0-3.2,0.1-4.8,0.1C45.5,113.6,45.9,115.3,45.8,117z"/>
<path class="st5" d="M45.8,117c0.1-1.7-0.3-3.4,0.3-5.1c1.6,0,3.2-0.1,4.8-0.1c0.1,0,0.2,0,0.4,0c1.6,0,3.2,0.1,4.8,0.1
	c0.5,1.7,0.1,3.4,0.3,5.1c-0.1,1.7,0.3,3.4-0.3,5.1c-1.6,0-3.2,0.1-4.8,0.1c-0.1,0-0.2,0-0.4,0c-1.6,0-3.2-0.1-4.8-0.1
	C45.5,120.4,45.9,118.7,45.8,117z"/>
<path class="st5" d="M15,117c0.1-1.7-0.3-3.4,0.3-5.1c1.6,0,3.2-0.1,4.8-0.1c0.1,0,0.2,0,0.4,0c1.6,0,3.2,0.1,4.8,0.1
	c0.5,1.7,0.1,3.4,0.3,5.1c-0.1,1.7,0.3,3.4-0.3,5.1c-1.6,0-3.2,0.1-4.8,0.1c-0.1,0-0.2,0-0.4,0c-1.6,0-3.2-0.1-4.8-0.1
	C14.7,120.4,15.1,118.7,15,117z"/>
<path class="st4" d="M114,102c0-0.5,0-1,0-1.5c0.1-1.2-0.5-2.8,0.3-3.5c0.6-0.6,2.1-0.2,3.2-0.2c0.9,0,0.9-0.5,1-1.2
	c0.1-1.3-0.6-3.1,0.3-3.9c0.9-0.7,2.6-0.2,4-0.2c0.7,0,1.5,0,2.2,0c1.2,0,2.8-0.4,3.6,0.2c0.9,0.7,0.3,2.3,0.3,3.5
	c0,1,0.1,1.6,1.4,1.5c1.2-0.1,2.9-0.4,3.6,0.2c0.9,0.8,0.3,2.6,0.3,3.9c0.1,2,0,4,0,6c0,1.5,0.5,3.3-0.1,4.4
	c-0.8,1.2-2.7,0.3-4.2,0.4c-0.9,0.1-0.9,0.5-1,1.2c-0.1,1.3,0.6,3.1-0.3,3.9c-0.9,0.7-2.6,0.2-4,0.2c-0.4,0-0.7,0-1.1,0
	c-1.6,0-3.2-0.1-4.8-0.1c-0.5-1.7-0.1-3.4-0.2-5.1c1.7-0.1,3.4,0.3,5.1-0.3c0-1.6,0.1-3.2,0.1-4.8c0-0.5,0-1,0-1.5
	c0-3.2,0-3.2-3-3.2C118.5,102,116.2,102,114,102z"/>
<path class="st5" d="M114,102c2.2,0,4.5,0,6.7,0c3,0,3,0,3,3.2c0,0.5,0,1,0,1.5c0,1.6-0.1,3.2-0.1,4.8c-1.7,0.5-3.4,0.1-5.1,0.3
	c-1.4-0.1-3.4,0.7-4.2-0.3c-0.7-0.9-0.3-2.8-0.3-4.2C114,105.5,114,103.7,114,102z"/>
<path class="st4" d="M108.8,36c-0.1,1.7,0.3,3.4-0.2,5.1c-1.6,0-3.2,0.1-4.8,0.1c-0.4,0-0.7,0-1.1,0c-1.4,0-3.1,0.4-4-0.2
	c-1-0.7-0.3-2.5-0.3-3.9c0-1.1-0.5-1.2-1.4-1.2c-1.2,0-2.9,0.4-3.6-0.2c-0.9-0.8-0.3-2.6-0.3-3.9c-0.1-3.1,0.1-6.2-0.1-9.3
	C92.9,21,93.5,21,94.7,21c1.2,0,2.8,0.6,3.5-0.4c0.5-0.8,0.2-2.2,0.1-3.3c-0.3-1.6,0.6-1.6,1.7-1.5c1.5,0.1,3,0,4.5,0
	c1.4,0,3.1-0.4,4,0.2c1,0.7,0.3,2.5,0.3,3.9c0,1.1,0.5,1.2,1.4,1.2c1.2,0,2.9-0.4,3.6,0.2c0.9,0.8,0.2,2.6,0.3,3.9
	c0,0.4,0,0.7,0,1.1c-2,0-4-0.1-6,0c-1.5,0.1-3.4-0.7-4.2,0.3c-0.7,1-0.3,2.8-0.3,4.3c0,1.6,0.1,3.2,0.1,4.8
	C105.3,36.3,107,35.9,108.8,36z"/>
<path class="st5" d="M108.8,36c-1.7-0.1-3.4,0.3-5.1-0.3c0-1.6-0.1-3.2-0.1-4.8c0-1.5-0.5-3.4,0.3-4.3c0.8-1,2.8-0.3,4.2-0.3
	c2-0.1,4,0,6,0c0,2.8,0,5.7,0,8.5c0,0.9-0.2,1.3-1.2,1.3C111.5,35.9,110.1,36,108.8,36z"/>
</svg>
