<?xml version="1.0" encoding="utf-8"?>
<!-- Generator: Adobe Illustrator 19.0.0, SVG Export Plug-In . SVG Version: 6.00 Build 0)  -->
<svg version="1.1" id="Layer_1" xmlns="http://www.w3.org/2000/svg" xmlns:xlink="http://www.w3.org/1999/xlink" x="0px" y="0px"
	 viewBox="0 0 589.4 218" style="enable-background:new 0 0 589.4 218;" xml:space="preserve">
<style type="text/css">
	.st0{fill:#F20224;}
	.st1{fill:#D1112B;}
	.st2{fill:#F66F7F;}
	.st3{fill:#090202;}
	.st4{fill:#F57622;}
	.st5{fill:#D98351;}
	.st6{fill:#060405;}
	.st7{fill:#070406;}
	.st8{fill:#F8EF17;}
	.st9{fill:#F7EF18;}
	.st10{fill:#3D02F7;}
	.st11{fill:#3C02F3;}
	.st12{fill:#F1F1F1;}
	.st13{fill:#F8F8F8;}
	.st14{fill:#FEFEFE;}
	.st15{fill:#F9FF00;}
</style>
<path class="st0" d="M571,218c-0.2,0-0.3,0-0.5,0c-0.4-0.5-1-0.2-1.4-0.2c-182.8,0-365.7,0-548.5,0c-0.6,0-1.1,0-1.7,0.1
	c-6.1-0.5-10.9-3.2-14.6-8c-2.1-2.8-3.6-5.9-3.8-9.5c0-0.3,0-0.6,0-1c0-32.4,0-64.8,0-97.2c0-0.8,0-1.6,0-2.4
	c0.1-3.1,1.3-5.8,2.9-8.3c3.4-5.1,8.1-8.4,14.3-9.1c0.9,0,1.8,0.1,2.8,0.1c182.2,0,364.4,0,546.7,0c1.7,0,3.4,0,5.2,0
	c0.4,0,0.8,0,1.2,0.1c9.2,2,16,10.2,16,19.6c0,31.9,0,63.8,0,95.8c0,8.3-5.3,15.7-13.1,18.8C574.6,217.3,572.7,217.5,571,218z
	 M294.7,89.6c-90,0-180.1,0-270.1,0c-1.5,0-3-0.1-4.4,0c-2.7,0.2-5.1,1.1-7.2,2.7c-3.9,3-5.5,7-5.5,11.8c0,30.5,0,61,0,91.4
	c0,1.8,0.1,3.5,0.7,5.2c1.4,4.4,4.3,7.3,8.6,8.8c2.5,0.9,5,0.8,7.6,0.8c180.9,0,361.8,0,542.7,0c0.4,0,0.7,0,1.1,0
	c1.8-0.2,3.7-0.3,5.3-1.1c5.6-2.6,8.4-7,8.4-13.2c0-30.7,0-61.4,0-92c0-1.6,0-3.1-0.5-4.6c-1-3.1-2.7-5.6-5.3-7.5
	c-2.6-1.8-5.5-2.4-8.7-2.4C476.4,89.6,385.6,89.6,294.7,89.6z"/>
<path class="st1" d="M570.8,82.1c0.5,0.1,1-0.1,1.4,0.3c-1.7,0-3.4,0-5.2,0c-182.2,0-364.4,0-546.7,0c-0.9,0-1.8,0-2.8-0.1
	c0.2-0.3,0.7,0,0.9-0.4c0.2,0,0.3,0,0.5,0c0.5,0.5,1.1,0.2,1.7,0.2c182.7,0,365.4,0,548.1,0C569.4,82.2,570.1,82.2,570.8,82.1z"/>
<path class="st2" d="M570.8,82.1c-0.7,0-1.4,0-2,0c-182.7,0-365.4,0-548.1,0c-0.6,0-1.2,0.3-1.7-0.2c183.9,0,367.8,0,551.8,0
	C570.8,82,570.8,82.1,570.8,82.1z"/>
<path class="st2" d="M18.9,217.8c0.6,0,1.1-0.1,1.7-0.1c182.8,0,365.7,0,548.5,0c0.5,0,1-0.3,1.4,0.2c-183.8,0-367.7,0-551.5,0
	C18.9,218,18.9,217.9,18.9,217.8z"/>
<path class="st2" d="M0.2,199c0,0-0.1,0-0.1,0l-0.1,0c0-32.6,0-65.3,0-97.9c0.1,0,0.1,0,0.2,0c0,0.3,0.1,0.6,0.1,1
	c0,31.4,0,62.9,0,94.3C0.3,197.3,0.3,198.2,0.2,199z"/>
<path class="st3" d="M294.7,89.6c90.9,0,181.7,0,272.6,0c3.2,0,6.1,0.7,8.7,2.4c2.7,1.8,4.4,4.4,5.3,7.5c0.5,1.5,0.5,3.1,0.5,4.6
	c0,30.7,0,61.4,0,92c0,6.2-2.8,10.6-8.4,13.2c-1.7,0.8-3.5,1-5.3,1.1c-0.4,0-0.7,0-1.1,0c-180.9,0-361.8,0-542.7,0
	c-2.6,0-5.1,0-7.6-0.8c-4.3-1.5-7.1-4.5-8.6-8.8c-0.6-1.7-0.7-3.4-0.7-5.2c0-30.5,0-61,0-91.4c0-4.8,1.6-8.8,5.5-11.8
	c2.1-1.6,4.5-2.6,7.2-2.7c1.5-0.1,3,0,4.4,0C114.6,89.6,204.6,89.6,294.7,89.6z M569.9,206.8c0.5,0.1,0.9-0.1,1.4-0.2
	c4.4-1.5,7.2-5.3,7.2-10c0-31,0-62,0-93c0-0.9,0-1.8-0.3-2.7c-1.5-5-5.2-7.8-10.6-7.8c-181,0-362.1,0-543.1,0c-1.2,0-2.5,0-3.7,0
	c-1.7,0-3.3,0.4-4.7,1.3c-3.6,2.2-5.3,5.5-5.3,9.7c0,30.8,0,61.7,0,92.5c0,1.4,0.2,2.8,0.8,4.1c1.5,3.4,3.9,5.7,7.7,6.2
	c1.6,0.5,3.3,0.2,5,0.2c180.8,0,361.6,0,542.4,0c0.6,0,1.3,0,1.9,0C569.1,207,569.5,207.1,569.9,206.8z"/>
<path class="st1" d="M0.2,199c0-0.9,0-1.8,0-2.6c0-31.4,0-62.9,0-94.3c0-0.3,0-0.6-0.1-1c0-0.5-0.1-0.9,0.2-1.3c0,0.8,0,1.6,0,2.4
	c0,32.4,0,64.8,0,97.2c0,0.3,0,0.6,0,1C0.2,199.9,0.3,199.5,0.2,199z"/>
<path class="st4" d="M19.3,206.8c-3.8-0.5-6.2-2.8-7.7-6.2c-0.6-1.3-0.8-2.7-0.8-4.1c0-30.8,0-61.7,0-92.5c0-4.2,1.6-7.5,5.3-9.7
	c1.4-0.9,3-1.3,4.7-1.3c1.2,0,2.5,0,3.7,0c181,0,362.1,0,543.1,0c5.3,0,9.1,2.8,10.6,7.8c0.3,0.9,0.3,1.8,0.3,2.7c0,31,0,62,0,93
	c0,4.7-2.8,8.5-7.2,10c-0.5,0.2-0.9,0.3-1.4,0.2c-0.4,0-0.8,0-1.2,0c-182,0-364,0-546,0C21.6,206.7,20.4,206.8,19.3,206.8z
	 M405.6,158L405.6,158c-0.8-0.2-0.5-0.9-0.5-1.4c0-16.6,0-33.2,0-49.8c0-0.4,0.3-1-0.3-1.3c-0.1,0-0.1,0-0.1,0
	c-0.4-0.1-0.5,0.1-0.5,0.4c-2.1,2.3-4.2,4.6-6.4,6.7c-0.4-0.3-0.3-0.7-0.3-1.1c0-1.8,0-3.7,0-5.5c0-0.4,0.2-0.8-0.2-1.1
	c-0.5-0.3-0.6,0.2-0.8,0.4c-1.1,1-2.1,2.1-3.4,3.4c0-3.4,0-6.5,0-9.9c-0.4,0.4-0.6,0.6-0.8,0.8c-10.5,11-21.1,21.9-31.6,32.9
	c-0.5,0.5-0.8,0.8-1.4,0.1c-7.6-7.8-15.2-15.5-22.8-23.3c-2-2-4-3.9-6.2-6c0,3.1,0,6.2,0,9.1c-2.7-2.5-5.4-5-8.2-7.6
	c0,0.9,0,1.8,0,2.2c-1.7-1.6-3.6-3.3-5.4-4.9c-0.3-0.2-0.3-0.8-0.9-0.5c-0.5,0.4-0.3,0.9-0.3,1.3c0,26.2,0,52.3,0,78.5
	c0,0.7,0,1.4,0,2.2c0,0.2,0,0.5,0.3,0.2c1.8,0.3,3.6,0.1,5.4,0.1c0.8,0,1,0.3,1,1c0,1.7,0,3.4,0,5c0,0.7,0.2,1,0.9,1
	c1.4-0.1,2.7,0,4.1,0c1,0,2.3-0.3,2.9,0.2c0.7,0.6,0.2,1.9,0.3,3c0.1,1.1-0.5,2.6,0.2,3.3c0.7,0.7,2.2,0.3,3.3,0.3
	c75.4,0,150.7,0,226.1,0c0.7,0,1.4,0,2.2,0c0.9,0.1,1.1-0.2,1.1-1.1c0-4.4,0-8.8,0-13.2c0-21.3,0-42.6,0-64c0-1-0.2-1.5-1.3-1.4
	c-1.9,0.1-3.8,0-5.8,0c-0.9,0-1.1-0.3-1-1.1c0.1-1.6,0-3.2,0-4.8c0-0.8-0.2-1-1-0.9c-1.4,0.1-2.8,0-4.2,0c-0.9,0-1.2-0.2-1.2-1.1
	c0.1-1.7,0-3.4,0-5c0-0.8-0.2-1.1-1-1.1c-11.3,0-22.6,0-33.8,0c-0.9,0-1.1,0.2-1.1,1.1c0,5.9,0,11.8,0,17.6c0,0.4,0.1,0.9-0.2,1.5
	c-6.2-6.8-12.2-13.5-18.6-20.6c0,3.6,0,6.8,0,10.3c-2.9-3.2-5.6-6.2-8.4-9.2c-0.2,0.8,0,1.5-0.3,2.2c-2-2.2-4-4.3-5.9-6.4
	c-0.1,0.1-0.2,0.1-0.3,0.2c0,18.9,0,37.8,0,56.7c-0.1,0-0.1,0-0.2,0c-9.3-17.3-18.6-34.7-28.1-52.2c-1.6,2.9-3,5.7-4.6,8.7
	c-1.8-3.3-3.4-6.4-5.2-9.6c-0.7,1.2-1.2,2.3-1.9,3.5c-1.2-2.3-2.4-4.5-3.6-6.7c-0.2,0.4-0.4,0.6-0.5,0.8
	c-6.1,11.8-12.3,23.6-18.4,35.4c-3.5,6.7-7,13.4-10.5,20.1C405.5,157.4,405.6,157.7,405.6,158z M309.8,146.3c-2,0-4-0.1-6-0.1
	c-0.7,0-1-0.2-1-0.9c0.1-1.9,0-3.9,0-5.8c0.8-0.5,0-0.4-0.2-0.4c-1.7,0-3.4,0-5.1,0c-0.7,0-1-0.2-1-1c0-1.8,0-3.6,0-5.5
	c0-0.1,0.3-0.6-0.3-0.4c-0.2-0.4-0.6-0.3-0.9-0.3c-12.2,0-24.4,0-36.6,0c-0.7,0-0.9,0.2-0.9,0.9c0,6.3,0,12.6,0,18.9
	c0,0.4-0.1,0.8,0.4,1c-0.1,0-0.3,0-0.3,0.2c0,0,0.2,0,0.3,0c2,0,4.1,0,6.1,0c0,1.9,0.1,3.8,0,5.7c0,1,0.2,1.5,1.4,1.4
	c1.5-0.1,3.1,0,4.7,0c0.8,0,1,0.2,0.9,1c0,1.5,0.1,3,0,4.5c-0.1,1.2,0.4,1.4,1.4,1.4c11.8,0,23.6,0,35.3,0c0.6,0,1.1-0.1,1.7-0.1
	c0.4-0.2,0.3-0.5,0.3-0.8c0-6.2,0-12.5,0-18.7C310.1,147,310.3,146.5,309.8,146.3z M185.7,190.3c1.7,0.7,3.3,1.5,5,2.2
	c2.1,0.9,4.5,1,6.5,2.1c9.5,4.7,19.4,6.4,29.8,4c13.4-3.1,22.4-11.3,28.1-23.6c0.2-0.5,0.2-0.7-0.3-1c-1.3-0.5-2.5-1.1-3.8-1.7
	c-0.6-0.3-0.9-0.5-0.4-1.2c0.5-0.8,0.8-1.7,1.2-2.4c0.4-0.7,0.3-1.1-0.5-1.4c-2.2-0.9-4.4-2-6.7-2.9c-0.7-0.3-1-0.6-0.5-1.4
	c0.8-1.4,1.4-2.9,2.2-4.2c0.5-0.8,0.3-1.1-0.5-1.5c-4.1-1.8-8.3-3.6-12.4-5.5c-1.3-0.6-2.8-1.1-4.1-1.9c0.3-0.2,0.4-0.3,0.5-0.3
	c6.5-3.7,13-7.4,19.6-11.1c0.8-0.5,1-0.8,0.4-1.7c-0.9-1.3-1.7-2.6-2.6-3.9c-0.4-0.5-0.4-0.8,0.2-1.1c0.8-0.4,1.5-0.8,2.2-1.2
	c0.6-0.3,0.7-0.6,0.3-1.2c-4.2-7-9.8-12.6-17-16.5c-2.5-1.3-5.2-2.1-7.7-3.3c-10.4-5.1-21.3-6.3-32.2-2.5
	c-17.3,6-27.3,18.3-29.7,36.6c-0.2,1.7-0.3,3.4-0.5,5.2c-7.9-14.5-15.8-28.9-23.8-43.5c-1.5,2.9-3,5.6-4.5,8.5
	c-1.8-3.3-3.5-6.4-5.3-9.6c-0.7,1.3-1.2,2.3-1.9,3.6c-1.3-2.3-2.4-4.4-3.7-6.7c-6.1,11.6-12.1,23.1-18.2,34.8
	c-0.9-2.7-2.1-4.9-3.6-6.9c-1-1.4-2.5-2.5-3.4-4c-1.6-2.8-3.8-5.1-6.4-7c-0.5-0.4-1-0.8-1.4-1.3c-5.8-7.5-13.6-11.4-22.9-11.6
	c-13.3-0.3-26.6-0.1-40-0.1c-1.1,0-1.4,0.3-1.4,1.4c0,24.8,0,49.5,0,74.3c0,0.9,0,1.8,0,2.8c0,0.7,0.2,0.8,0.8,0.8c1.7,0,3.4,0,5,0
	c0.8,0,0.9,0.2,0.9,1c0,1.6,0,3.2,0,4.8c0,0.9,0.3,1.1,1.1,1c1.5-0.1,3,0,4.6,0c0.8,0,1,0.2,1,1c0,2-0.2,3.9,0.1,5.9
	c0.2,0.5,0.6,0.3,0.9,0.3c11.8,0,23.5,0,35.3,0c0.4,0,0.8,0.2,1-0.3c0-3.3,0-6.6,0-9.8c0-4.6,0-9.2,0-13.8c0-0.4-0.3-1,0.5-1
	c2.7,0,5.4,0.2,8.1-0.3c0.1,0.5-0.2,0.8-0.3,1.1c-1.5,2.9-3,5.7-4.5,8.6c-0.9,1.7-0.9,1.7,1,1.7c1.7,0,3.4,0,5.3,0
	c-1.2,2.4-2.3,4.5-3.5,6.8c3.2,0,6.1,0,9.1,0c1.1,0,1.2,0.2,0.7,1.1c-1,1.9-2.2,3.7-2.8,5.7c0.2,0.5,0.7,0.3,1,0.3
	c32,0,64.1,0,96.1,0c0.4,0,0.8,0.2,1.1-0.3c0.4-0.5-0.1-0.8-0.3-1.1c-1.1-2.1-2.2-4.2-3.3-6.2C185.6,190.4,185.6,190.4,185.7,190.3z
	"/>
<path class="st5" d="M19.3,206.8c1.1,0,2.2,0,3.4,0c182,0,364,0,546,0c0.4,0,0.8,0,1.2,0c-0.4,0.3-0.8,0.2-1.3,0.3
	c-0.6,0-1.3,0-1.9,0c-180.8,0-361.6,0-542.4,0C22.7,207,21,207.3,19.3,206.8z"/>
<path class="st6" d="M404.7,105.5c0,0,0.1,0,0.1,0c0,17.9,0,35.8,0,54c0.4-0.7,0.7-1,0.8-1.5c0,0,0,0,0,0c0.1-0.2,0.3-0.5,0.4-0.7
	c3.5-6.7,7-13.4,10.5-20.1c6.1-11.8,12.3-23.6,18.4-35.4c0.1-0.2,0.3-0.5,0.5-0.8c1.2,2.3,2.4,4.4,3.6,6.7c0.7-1.2,1.2-2.3,1.9-3.5
	c1.7,3.2,3.4,6.3,5.2,9.6c1.6-2.9,3-5.7,4.6-8.7c9.4,17.5,18.7,34.9,28.1,52.2c0.1,0,0.1,0,0.2,0c0-18.9,0-37.8,0-56.7
	c0.1-0.1,0.2-0.1,0.3-0.2c2,2.1,3.9,4.3,5.9,6.4c0.3-0.7,0-1.3,0.3-2.2c2.8,3.1,5.5,6,8.4,9.2c0-3.5,0-6.7,0-10.3
	c6.3,7,12.4,13.7,18.6,20.6c0.3-0.5,0.2-1,0.2-1.5c0-5.9,0-11.8,0-17.6c0-0.9,0.2-1.1,1.1-1.1c11.3,0,22.6,0,33.8,0
	c0.9,0,1.1,0.3,1,1.1c-0.1,1.7,0,3.4,0,5c0,0.9,0.3,1.2,1.2,1.1c1.4-0.1,2.8,0,4.2,0c0.7,0,1,0.2,1,0.9c-0.1,1.6,0,3.2,0,4.8
	c0,0.8,0.2,1.1,1,1.1c1.9-0.1,3.8,0.1,5.8,0c1.2-0.1,1.3,0.4,1.3,1.4c0,21.3,0,42.6,0,64c0,4.4,0,8.8,0,13.2c0,0.8-0.2,1.2-1.1,1.1
	c-0.7-0.1-1.4,0-2.2,0c-75.4,0-150.7,0-226.1,0c-1.1,0-2.6,0.5-3.3-0.3c-0.7-0.7-0.1-2.1-0.2-3.3c-0.1-1,0.5-2.4-0.3-3
	c-0.6-0.5-1.9-0.2-2.9-0.2c-1.4,0-2.7,0-4.1,0c-0.8,0-1-0.2-0.9-1c0-1.7,0-3.4,0-5c0-0.8-0.2-1-1-1c-1.8,0-3.6,0.2-5.4-0.1
	c0-0.4,0-0.7,0-1.1c0-25.8,0-51.5,0-77.3c0-1.2,0-2.5-0.1-3.7c0.6-0.3,0.7,0.3,0.9,0.5c1.9,1.7,3.7,3.4,5.4,4.9c0-0.5,0-1.3,0-2.2
	c2.8,2.6,5.5,5.1,8.2,7.6c0-2.9,0-6,0-9.1c2.1,2.1,4.2,4,6.2,6c7.6,7.7,15.2,15.5,22.8,23.3c0.7,0.7,0.9,0.4,1.4-0.1
	c10.5-11,21.1-21.9,31.6-32.9c0.2-0.2,0.4-0.4,0.8-0.8c0,3.4,0,6.5,0,9.9c1.3-1.3,2.3-2.3,3.4-3.4c0.2-0.2,0.3-0.7,0.8-0.4
	c0,2.5,0,5,0,7.6c0,0.2-0.1,0.5,0.3,0.5c0.1,0,0.2-0.2,0.3-0.3c2.2-2.2,4.4-4.4,6.4-6.7C404.4,105.8,404.5,105.7,404.7,105.5z
	 M489.1,187.6c0.2,0,0.4,0.1,0.6,0.1c20.3,0,40.5,0,60.8,0c0.9,0,1-0.3,1-1.1c0-23.6,0-47.3,0-70.9c0-0.9-0.3-1.1-1.1-1.1
	c-9,0-18,0-27,0c-1,0-1.2,0.3-1.2,1.3c0,11,0,21.9,0,32.9c0,0.4,0.2,0.8-0.3,1.3c-0.1-0.2-0.2-0.3-0.3-0.5
	c-7.5-8.3-15-16.5-22.5-24.8c-3.3-3.6-6.5-7.1-9.8-10.7c-0.1-0.2-0.2-0.5-0.7-0.5c0,0.2,0,0.5,0,0.7c0,24.1,0,48.2,0,72.3
	c0,0.2,0,0.5,0,0.7C488.8,187.5,488.9,187.6,489.1,187.6z M325.4,112.9c0,0.7,0,1.1,0,1.5c0,24,0,48.1,0,72.1c0,1,0.3,1.2,1.2,1.2
	c22,0,43.9,0,65.9,0c1.2,0,1.4-0.3,1.4-1.4c0-24,0-48.1,0-72.1c0-0.3,0.1-0.6-0.1-0.9c-0.3-0.1-0.4,0.1-0.5,0.3
	c-3.6,3.7-7.2,7.5-10.8,11.2c-7.4,7.6-14.8,15.3-22.2,22.9c-0.5,0.5-0.7,0.6-1.3,0c-3.6-3.8-7.3-7.6-11-11.4
	C340.5,128.5,333.1,120.8,325.4,112.9z M482,187.6c-13.7-25.5-27.3-50.8-40.9-76.2c-0.1,0.2-0.2,0.3-0.2,0.3
	c-13,25-26.1,50-39.1,74.9c-0.4,0.7-0.3,1,0.5,0.9c0.2,0,0.5,0,0.7,0c25.8,0,51.7,0,77.5,0C481,187.6,481.4,187.6,482,187.6z
	 M559.7,157.9c0-11.1,0-22.2,0-33.2c0-1,0.4-2.4-0.2-3c-0.6-0.8-2-0.2-3.1-0.3c-1.9-0.1-1.6-0.1-1.6,1.5c0,22.3,0,44.5,0,66.8
	c0,1.1-0.3,1.3-1.3,1.3c-16,0-32.1,0-48.1,0c-2.4,0-4.8,0-7.2,0c-0.3,0-0.8-0.1-0.9,0.2c-0.3,0.9-0.2,1.9,0,2.8
	c0.1,0.6,1,0.3,1.5,0.3c19.8,0,39.7,0,59.5,0c1.2,0,1.3-0.4,1.3-1.4C559.7,181.2,559.7,169.5,559.7,157.9z M485.1,186.3
	c0.1,0,0.2,0,0.2,0c0-3.2,0-6.3,0-9.5c0-0.4-0.2-0.6-0.4-1c-4.6-8.5-9.1-17.1-13.7-25.7c-3.5-6.5-7-13-10.5-19.5
	c-3.1-5.8-6.3-11.6-9.4-17.5c-0.1-0.2-0.1-0.6-0.5-0.5c-0.3,0.1-0.4,0.3-0.5,0.5c-0.6,1.1-1.2,2.3-1.8,3.4c-0.3,0.5-0.3,1.1,0,1.6
	c0.8,1.5,1.7,3,2.5,4.5c3.3,6.1,6.6,12.2,9.9,18.3c3.1,5.8,6.2,11.7,9.3,17.5c3,5.6,6,11.1,9,16.6
	C481.1,178.9,483.1,182.6,485.1,186.3z M397.1,187.8c0.1,0,0.2,0.1,0.2,0.1c0.2-0.3,0.5-0.6,0.6-0.9c0.8-1.5,1.6-3,2.3-4.5
	c0.7-1.4,1.2-2.8,1.2-4.5c-0.1-20.4,0-40.8,0-61.2c0-0.6-0.1-1.3,0.1-1.9c0.1-0.3,0-0.6-0.2-0.8c-0.4-0.2-0.4,0.2-0.6,0.4
	c-0.8,0.8-1.5,1.7-2.4,2.4c-1,0.8-1.3,1.8-1.3,3c0,20.2,0,40.4,0,60.6C397.1,183,397.1,185.4,397.1,187.8z M494.8,194.2
	c-0.4-0.8-0.7-1.4-1-2c-0.4-0.9-1-1.3-2.1-1.3c-26.5,0-53.1,0-79.6,0c-0.5,0-1,0-1.6,0c-0.4,0-0.8,0.1-1,0.5
	c-0.5,0.9-0.9,1.8-1.4,2.8C437.1,194.2,465.9,194.2,494.8,194.2z M367.4,194.3c10.6,0,21.3,0,31.9,0c2.1,0,2,0,2.1-2.1
	c0-1-0.2-1.3-1.2-1.3c-21.5,0-43,0-64.5,0c-2.1,0-2,0-2.1,2.1c0,1,0.2,1.3,1.2,1.3C345.7,194.2,356.5,194.3,367.4,194.3z
	 M319.2,109.8c-0.3,0.2-0.2,0.4-0.2,0.5c0,22.8,0,45.6,0,68.4c0,2,0,2,2,2c0.7,0,1-0.1,1-1c0-22.1,0-44.1,0-66.2
	c0-0.3,0.1-0.7-0.1-0.9C321,111.6,320.1,110.7,319.2,109.8z M435.5,108.1c-0.2,0.3-0.3,0.4-0.4,0.6c-10,19.2-20,38.4-30,57.6
	c-0.1,0.3-0.3,0.6-0.3,0.9c0,2,0,4,0,6.1c0.4,0,0.3-0.3,0.4-0.4c3-5.8,6.1-11.7,9.1-17.5c7.5-14.4,15-28.8,22.5-43.2
	c0.2-0.4,0.6-0.7,0.2-1.2C436.5,110.1,436.1,109.1,435.5,108.1z M482.5,108.9c0,0.4,0,0.6,0,0.7c0,17.6,0,35.3,0,52.9
	c0,2.8,2,4.5,2.8,7c0.2-0.3,0.3-0.3,0.3-0.3c0-18.6,0-37.3,0-55.9c0-0.4,0.2-0.9-0.2-1.3C484.4,111,483.5,110,482.5,108.9z
	 M518.9,131.3c0-6.5,0-12.7,0-18.9c0-1.1,0.3-1.3,1.3-1.3c7.4,0,14.8,0,22.2,0c3,0,2.9,0,2.9-3c0-0.7-0.2-0.9-0.9-0.9
	c-9.2,0-18.4,0-27.6,0c-0.7,0-0.9,0.2-0.9,0.9c0,6.4,0,12.8,0,19.2c0,0.4,0,0.8,0.3,1.1C517.1,129.3,517.9,130.2,518.9,131.3z
	 M333.6,114.3c0.2,0.8-0.4,1.8,0.4,2.7c3.7,3.8,7.4,7.7,11.1,11.5c4.1,4.2,8.2,8.4,12.3,12.6c2.3,2.4,2.2,2.4,4.3,0.2
	c0.5-0.6,0.5-0.9-0.1-1.4c-3.5-3.5-6.9-7.1-10.4-10.6c-5.3-5.4-10.5-10.8-15.9-16.1c-0.5-0.5-1-1.6-1.7-1.3
	c-0.5,0.2-0.1,1.4-0.2,2.1C333.6,114.1,333.6,114.1,333.6,114.3z M389.7,107.2c-0.3,0.3-0.4,0.3-0.5,0.5
	c-8.4,8.8-16.8,17.5-25.2,26.3c-1.8,1.8-1.7,1.8,0.1,3.7c0.5,0.5,0.8,0.6,1.3,0c8-8.3,15.9-16.5,23.9-24.7c0.3-0.3,0.5-0.7,0.5-1.2
	C389.7,110.3,389.7,108.9,389.7,107.2z M497.6,112.7c-0.1,0-0.2,0.1-0.3,0.1c0,1.3,0,2.6,0,3.9c0,0.7,0.2,1.2,0.7,1.8
	c1.7,1.8,3.3,3.6,5,5.5c5.2,5.8,10.5,11.6,15.9,17.6c0-1.2-0.1-2,0-2.9c0.2-1.7-0.5-3-1.6-4.2c-4.1-4.3-8-8.8-12-13.2
	C502.7,118.4,500.2,115.5,497.6,112.7z M405,193c0.3-0.6,0.7-1.3,1.1-2.1C404.1,190.9,405.1,192.2,405,193z"/>
<path class="st7" d="M90.8,197.8c0.7-2,1.9-3.8,2.8-5.7c0.5-1,0.4-1.2-0.7-1.1c-3,0.1-5.9,0-9.1,0c1.2-2.3,2.3-4.4,3.5-6.8
	c-1.8,0-3.6,0-5.3,0c-1.9,0-1.9,0-1-1.7c1.5-2.9,3-5.7,4.5-8.6c0.2-0.3,0.4-0.6,0.3-1.1c-2.7,0.5-5.4,0.3-8.1,0.3
	c-0.9,0-0.5,0.6-0.5,1c0,4.6,0,9.2,0,13.8c0,3.3,0,6.6,0,9.8c-0.5,0-1,0-1.4,0c-12,0-23.9,0-35.9,0c-0.2-2-0.1-3.9-0.1-5.9
	c0-0.8-0.2-1-1-1c-1.5,0.1-3,0-4.6,0c-0.8,0-1.1-0.2-1.1-1c0.1-1.6,0-3.2,0-4.8c0-0.7-0.2-1-0.9-1c-1.7,0.1-3.4,0-5,0
	c-0.6,0-0.9-0.2-0.8-0.8c0-0.9,0-1.8,0-2.8c0-24.8,0-49.5,0-74.3c0-1.1,0.3-1.4,1.4-1.4c13.3,0,26.6-0.2,40,0.1
	c9.3,0.2,17.1,4.1,22.9,11.6c0.4,0.5,0.8,0.9,1.4,1.3c2.6,1.9,4.8,4.2,6.4,7c0.9,1.5,2.3,2.6,3.4,4c1.5,2.1,2.6,4.3,3.6,6.9
	c6.1-11.7,12.1-23.2,18.2-34.8c1.3,2.3,2.4,4.4,3.7,6.7c0.7-1.2,1.2-2.3,1.9-3.6c1.8,3.2,3.5,6.3,5.3,9.6c1.5-2.9,2.9-5.6,4.5-8.5
	c8,14.6,15.9,29.1,23.8,43.5c0.2-1.8,0.3-3.5,0.5-5.2c2.5-18.3,12.4-30.6,29.7-36.6c11-3.8,21.8-2.6,32.2,2.5c2.5,1.2,5.2,2,7.7,3.3
	c7.3,3.9,12.8,9.5,17,16.5c0.4,0.6,0.2,0.9-0.3,1.2c-0.8,0.4-1.5,0.8-2.2,1.2c-0.6,0.3-0.6,0.5-0.2,1.1c1,1.2,1.7,2.6,2.6,3.9
	c0.6,0.9,0.4,1.2-0.4,1.7c-6.5,3.7-13,7.4-19.6,11.1c-0.1,0.1-0.3,0.2-0.5,0.3c1.3,0.9,2.7,1.3,4.1,1.9c4.1,1.9,8.2,3.7,12.4,5.5
	c0.8,0.3,1,0.7,0.5,1.5c-0.8,1.4-1.4,2.9-2.2,4.2c-0.4,0.8-0.2,1.1,0.5,1.4c2.2,0.9,4.4,2,6.7,2.9c0.8,0.3,0.9,0.6,0.5,1.4
	c-0.5,0.8-0.7,1.7-1.2,2.4c-0.5,0.7-0.2,0.9,0.4,1.2c1.3,0.5,2.5,1.2,3.8,1.7c0.6,0.2,0.6,0.4,0.3,1c-5.7,12.2-14.7,20.5-28.1,23.6
	c-10.4,2.4-20.3,0.7-29.8-4c-2-1-4.4-1.2-6.5-2.1c-1.7-0.7-3.3-1.5-5-2.2c-0.1,0-0.2,0-0.3-0.1c0,0.1,0.1,0.2,0.1,0.2
	c1.1,2.1,2.2,4.1,3.3,6.2c0.2,0.3,0.7,0.6,0.3,1.1c-0.7,0-1.4,0-2.2,0c-28.8,0-57.6,0-86.4,0C97.3,197.8,94.1,197.8,90.8,197.8z
	 M204.6,108.8c0.5,0.1,0.8-0.2,1.2-0.4c-0.4,0-0.8,0-1.2,0c-0.6,0.1-1.2,0.1-1.8,0.2c-10.9,0.9-20,5.5-27.1,13.8
	c-7.5,8.8-10.3,19.2-9.3,30.6c0.2,1.8,0.3,3.6,1.3,5.3c1.6,2.6,3,5.4,4.4,8.1c0.2,0.1,0,0.5,0.3,0.6c0.1-0.3,0.1-0.5-0.1-0.7
	c-0.1-0.2-0.1-0.5-0.2-0.7c-5.5-17.5-2-32.8,11-45.7C189.1,113.9,196.4,110.3,204.6,108.8z M98.4,142.6c0.4-2.6,0.5-5.1,0-7.7
	c-0.2-2.9-1.1-5.6-2.7-8c-5.1-7.9-12.7-11.6-21.8-11.8c-12.1-0.3-24.2-0.1-36.3-0.1c-0.9,0-1.1,0.2-1.1,1.1c0,23.4,0,46.8,0,70.3
	c0,1,0.4,1.1,1.2,1.1c9,0,18,0,27,0c0.4,0,0.7,0,1.1-0.1c0.6-0.2,0.3-0.7,0.3-1c0-3.4,0-6.8,0-10.2c0-4.3,0-8.6-0.1-12.8
	c0.3-0.3,0.7-0.2,1.1-0.2c2.5,0,5-0.1,7.5,0c4.4,0,8.5-1,12.3-3.2C93.8,156.3,97.6,150.4,98.4,142.6z M205.9,151
	c0.3-0.2,0.5-0.3,0.7-0.4c12.6-7,25.2-13.9,37.9-20.9c0.9-0.5,1.1-0.8,0.4-1.7c-9.4-12.5-21.9-18.2-37.5-16.3
	c-22.8,2.7-38.4,25.1-33.5,47.5c4.6,20.9,24.3,34.4,45.3,30.7c12.3-2.1,21.5-8.9,27.9-19.6c0.5-0.8,0.3-1-0.5-1.4
	c-7-3.1-14-6.2-21-9.3C219.1,156.8,212.6,153.9,205.9,151z M170.9,187.6c-13.9-25.5-27.8-50.8-41.7-76.3
	c-13.3,25.5-26.5,50.8-39.7,76.3C116.7,187.6,143.7,187.6,170.9,187.6z M138.9,112.5c-0.9,1.7-1.7,3.2-2.5,4.7
	c-0.2,0.3,0,0.6,0.2,0.9c1.2,2.2,2.4,4.4,3.6,6.6c4.2,7.7,8.3,15.3,12.5,23c2.8,5.1,5.7,10.3,8.5,15.4c3.3,6.1,6.6,12.2,10,18.3
	c1.6,2.9,3.3,5.9,4.9,8.8c0.3,0.5,0.3,0.9-0.5,0.8c-0.2,0-0.5,0-0.7,0c-24.9,0-49.7,0-74.6-0.1c-1.8,0-2.7,0.5-3.3,2.1
	c-0.5,1.4-0.6,1.3,0.8,1.3c28.3,0,56.5,0,84.8,0c0.9,0,1.1-0.2,0.6-1c-1.7-3-3.4-6-5-9c-4.1-7.5-8.2-15.1-12.3-22.6
	c-3.4-6.3-6.9-12.6-10.3-18.9c-3.4-6.1-6.7-12.3-10.1-18.4C143.3,120.4,141.2,116.6,138.9,112.5z M102.1,137.4
	c0.4,1.8-0.2,3.5-0.3,5.2c-0.1,3-1,5.8-2.2,8.5c-1.8,4.1-4.6,7.5-8.3,10.1c-4.2,3-8.9,4.8-14.1,5.2c-2.1,0.1-4.3,0.1-6.5,0.1
	c-1,0-1.3,0.3-1.3,1.3c0,7.2,0,14.5,0,21.7c0,1.1-0.3,1.5-1.4,1.5c-7.6,0-15.3,0-22.9,0c-2.1,0-2,0-2.1,2.1c0,1,0.2,1.4,1.3,1.3
	c9.4-0.1,18.8,0,28.2,0c1.1,0,1.3-0.3,1.3-1.3c0-7.4,0-14.8,0-22.2c0-0.8,0.1-1.1,1-1.1c1.4,0.1,2.8,0,4.2,0
	c3.5,0.1,6.8-0.2,10.2-1.4c8.8-3.2,12.9-10.6,13.9-18.3c0.4-3,0.5-6,0-8.9C103,139.8,102.9,138.5,102.1,137.4z M81.1,112.6
	c-2.7-2.2-8.8-4.3-12.9-4.3c-12.4,0-24.7,0-37.1-0.1c-1.1,0-1.3,0.3-1.3,1.4c0,23,0,46.1,0,69.1c0,2.1,0,2,2,2.1
	c1.1,0.1,1.4-0.2,1.4-1.4c0-22.1,0-44.2-0.1-66.3c0-1,0.2-1.3,1.3-1.3c10.5,0,21,0,31.6,0C71,111.9,76.1,111.3,81.1,112.6z
	 M200.3,192.5c1.6,0.6,2.8,1.1,4.1,1.6c3.2,1.1,6.4,2,9.8,2.1c3.3,0.1,6.6,0.2,9.9-0.4c3.9-0.7,7.6-1.9,11-3.7
	c6.5-3.5,11.4-8.6,15.1-15c0.3-0.5,0.7-1.1-0.1-1.3c-0.8-0.2-1.6-1.5-2.4-0.3c-1.7,2.5-3.7,4.7-5.9,6.8c-1.9,1.8-4,3.4-6.2,4.8
	c-3.4,2.1-6.9,3.8-10.7,4.9c-2.8,0.8-5.6,1.5-8.5,1.7c-4.5,0.3-9.1,0.2-13.5-0.9C202.2,192.6,201.5,192.2,200.3,192.5z M217.6,152.5
	c0.3,0,0.6-0.1,0.8-0.3c1.5-0.9,3.1-1.8,4.7-2.7c6.8-3.9,13.7-7.7,20.5-11.6c2.1-1.2,2.1-1.2,0.7-3.2c-0.5-0.8-1.1-0.7-1.7-0.4
	c-3.3,1.8-6.5,3.7-9.8,5.5c-4.5,2.5-9,4.9-13.5,7.4c-1.7,0.9-3.4,1.9-5.1,2.9c-0.2,0.1-0.9,0.4-0.3,0.7
	C215.1,151.5,216.4,152,217.6,152.5z M106.8,146.6c0.3,0.1,0.3-0.1,0.3-0.2c6-11.5,12-23,18-34.4c0.1-0.3,0.3-0.5,0.1-0.9
	c-0.5-0.9-1-1.8-1.6-2.9c-5.7,10.9-11.2,21.6-16.8,32.3c-0.2,0.3-0.3,0.6-0.2,0.9C106.8,143.1,106.9,144.9,106.8,146.6z
	 M221.6,154.3c0.4,0.2,0.6,0.3,0.9,0.4c5.2,2.3,10.4,4.6,15.6,6.9c2.4,1.1,2.4,1.1,3.6-1.3c0.3-0.6,0.3-0.9-0.4-1.2
	c-5.1-2.2-10.1-4.5-15.2-6.7c-0.3-0.1-0.6-0.4-1-0.2C224,152.9,222.9,153.6,221.6,154.3z M95.2,169.3c-0.8,0.4-1.3,0.8-1.8,1
	c-2.3,0.7-3.5,2.3-4.4,4.3c-0.9,2.1-2.1,4.1-3.2,6.3c1.1,0,2,0,2.9,0c0.4,0,0.6-0.2,0.7-0.5C91.3,176.7,93.2,173.1,95.2,169.3z
	 M184.7,185.6c-2.6-2.8-4.6-6-6.8-9.1c1,2.2,2.2,4.3,3.3,6.4C182,184.3,183.4,184.9,184.7,185.6z M177.8,176.1
	C177.8,176.1,177.8,176.1,177.8,176.1c-0.1,0-0.1,0-0.2,0.1c0,0,0,0,0.1,0.1C177.8,176.2,177.8,176.2,177.8,176.1z"/>
<path class="st6" d="M302.9,139.5c0,1.9,0,3.9,0,5.8c0,0.8,0.3,0.9,1,0.9c2,0,4,0,6,0.1c0,6.8,0,13.7,0,20.5c-0.6,0-1.1,0.1-1.7,0.1
	c-11.8,0-23.6,0-35.3,0c-1,0-1.5-0.2-1.4-1.4c0.1-1.5,0-3,0-4.5c0-0.7-0.2-1-0.9-1c-1.6,0.1-3.1-0.1-4.7,0c-1.2,0.1-1.4-0.4-1.4-1.4
	c0.1-1.9,0-3.8,0-5.7c0-0.3-0.3-0.4-0.5-0.4c-1.9,0-3.7,0-5.6,0.1c-0.5-0.2-0.4-0.6-0.4-1c0-6.3,0-12.6,0-18.9
	c0-0.7,0.3-0.9,0.9-0.9c12.2,0,24.4,0,36.6,0c0.4,0,0.7-0.1,0.9,0.3c0,2,0,4-0.1,6.1c0,0.8,0.2,1.1,1.1,1.1
	C299.2,139.4,301.1,139.2,302.9,139.5z M299.5,143.1c0-0.8-0.6-0.4-1-0.4c-9.9,0-19.8,0-29.6,0c-0.9,0-1.1,0.2-1,1.1c0,4,0,8,0,12
	c0,0.8,0.2,1.1,1.1,1.1c5.2,0,10.5,0,15.7,0c4.6,0,9.3,0,13.9,0c0.3,0,1,0.4,1-0.4C299.5,151.9,299.5,147.5,299.5,143.1z
	 M277.2,135.2c-4.8,0-9.7,0-14.5,0c-1,0-1.4,0.2-1.4,1.3c0.1,3.5,0,7,0,10.6c0,2.2,0,2.2,2.3,2.2c0.9,0,1-0.3,1-1c0-2.6,0-5.1,0-7.7
	c0-1,0.2-1.3,1.2-1.3c8.1,0,16.2,0,24.2,0c1,0,2.3,0.5,2.9-0.2c0.5-0.6,0.1-1.8,0.2-2.8c0.1-1-0.3-1.1-1.2-1.1
	C286.9,135.3,282.1,135.2,277.2,135.2z M290.5,163.6C290.5,163.6,290.5,163.6,290.5,163.6c4.9,0,9.8,0,14.7,0c0.8,0,1.1-0.2,1.1-1.1
	c-0.1-3.5,0-7,0-10.5c0-2.4,0-2.4-2.5-2.4c-0.8,0-1,0.2-1,1c0,2.8,0,5.5,0,8.3c0,1-0.2,1.3-1.2,1.3c-8.3,0-16.5,0-24.8,0
	c-2.6,0-2.1-0.4-2.2,2.2c0,1,0.3,1.3,1.3,1.3C280.8,163.6,285.7,163.6,290.5,163.6z"/>
<path class="st5" d="M90.8,197.8c3.2,0,6.5,0,9.7,0c28.8,0,57.6,0,86.4,0c0.7,0,1.4,0,2.2,0c-0.3,0.5-0.7,0.3-1.1,0.3
	c-32,0-64.1,0-96.1,0C91.5,198.1,91.1,198.3,90.8,197.8z"/>
<path class="st5" d="M315.7,101.7c0,1.2,0.1,2.5,0.1,3.7c0,25.8,0,51.5,0,77.3c0,0.4,0,0.7,0,1.1c-0.3,0.3-0.3,0-0.3-0.2
	c0-0.7,0-1.4,0-2.2c0-26.2,0-52.3,0-78.5C315.4,102.6,315.2,102,315.7,101.7z"/>
<path class="st5" d="M405.6,158c-0.1,0.5-0.4,0.8-0.8,1.5c0-18.2,0-36.1,0-54c0.6,0.3,0.3,0.9,0.3,1.3c0,16.6,0,33.2,0,49.8
	C405.1,157.1,404.8,157.8,405.6,158z"/>
<path class="st5" d="M39.9,197.8c12,0,23.9,0,35.9,0c0.5,0,1,0,1.4,0c-0.2,0.5-0.7,0.3-1,0.3c-11.8,0-23.5,0-35.3,0
	C40.5,198.1,40.1,198.3,39.9,197.8z"/>
<path class="st5" d="M309.8,166.9c0-6.8,0-13.7,0-20.5c0.5,0.2,0.3,0.6,0.3,0.9c0,6.2,0,12.5,0,18.7
	C310.1,166.3,310.2,166.7,309.8,166.9z"/>
<path class="st5" d="M302.9,139.5c-1.8-0.3-3.7-0.1-5.6-0.1c-0.8,0-1.1-0.3-1.1-1.1c0.1-2,0.1-4,0.1-6.1c0.6-0.2,0.3,0.3,0.3,0.4
	c0,1.8,0,3.6,0,5.5c0,0.7,0.3,1,1,1c1.7,0,3.4,0,5.1,0C302.9,139.1,303.7,139,302.9,139.5z"/>
<path class="st5" d="M397.8,112.7c-0.1,0.1-0.2,0.3-0.3,0.3c-0.4,0.1-0.3-0.3-0.3-0.5c0-2.5,0-5,0-7.6c0.4,0.3,0.2,0.7,0.2,1.1
	c0,1.8,0,3.7,0,5.5C397.5,112,397.4,112.4,397.8,112.7z"/>
<path class="st5" d="M258.4,152.7c1.9,0,3.7,0,5.6-0.1c0.2,0,0.5,0,0.5,0.4c-2,0-4.1,0-6.1,0c-0.1,0-0.3,0-0.3,0
	C258.1,152.7,258.3,152.7,258.4,152.7z"/>
<path class="st5" d="M406,157.3c-0.1,0.2-0.3,0.5-0.4,0.7C405.6,157.7,405.5,157.4,406,157.3z"/>
<path class="st5" d="M404.7,105.5c-0.2,0.1-0.3,0.3-0.5,0.4C404.2,105.7,404.3,105.4,404.7,105.5z"/>
<path class="st8" d="M489.4,114.1c3.3,3.6,6.5,7.1,9.8,10.7c7.5,8.2,15,16.5,22.5,24.8c0.1,0.1,0.2,0.3,0.3,0.5
	c0.4-0.5,0.3-0.9,0.3-1.3c0-11,0-21.9,0-32.9c0-1,0.2-1.3,1.2-1.3c9,0,18,0,27,0c0.9,0,1.1,0.2,1.1,1.1c0,23.6,0,47.3,0,70.9
	c0,0.8-0.1,1.1-1,1.1c-20.3,0-40.5,0-60.8,0c-0.2,0-0.4,0-0.6-0.1c0-24,0-47.9,0-71.9C489.1,115.1,489.1,114.6,489.4,114.1z
	 M528,179.4c-0.3,0-0.4,0.2-0.4,0.5c0.1,0.9-0.3,1.9,0.2,2.8c0.1,0,0.1,0.1,0.1,0.2c0,0-0.1,0.1-0.1,0.1c0,0,0,0.1,0,0.1
	c0.1,0,0.2,0.1,0.3,0.1c6.1,0,12.2,0,18.3,0c0.3,0,0.7,0,0.7-0.4c0-4.6,0-9.2,0-13.9c0-3.3,0-3.3-3.4-2.9c-0.6,0.3-0.4,0.8-0.4,1.2
	c0,4.1,0,8.2,0,12.2c-4.6,0-9.2,0.1-13.9,0.1C529,179.5,528.5,179.7,528,179.4z"/>
<path class="st9" d="M325.4,112.9c7.7,8,15.1,15.7,22.6,23.3c3.7,3.8,7.4,7.6,11,11.4c0.5,0.6,0.8,0.5,1.3,0
	c7.4-7.7,14.8-15.3,22.2-22.9c3.6-3.7,7.2-7.5,10.8-11.2c0.1-0.1,0.2-0.4,0.5-0.3c0.2,0.3,0.1,0.6,0.1,0.9c0,24,0,48.1,0,72.1
	c0,1.2-0.3,1.4-1.4,1.4c-22,0-43.9,0-65.9,0c-0.9,0-1.2-0.2-1.2-1.2c0-24,0-48.1,0-72.1C325.4,114,325.4,113.6,325.4,112.9z
	 M389.3,182.9c0-0.1,0.1-0.1,0.1-0.2c0.5-0.2,0.4-0.7,0.4-1c0-4.9,0-9.8,0-14.7c0-0.4,0.2-0.8-0.4-1c-0.8,0-1.5,0-2.3-0.1
	c-0.8-0.1-1.1,0.2-1.1,1c0,3.8,0,7.7,0,11.5c0,0.9-0.2,1.2-1.1,1.1c-3.9-0.1-7.9,0-11.9,0c-3.2,0-3.2,0-3,3.3
	c0.2,0.5,0.7,0.3,1.1,0.3c5.7,0,11.3,0,17,0C388.6,183.2,389,183.4,389.3,182.9z"/>
<path class="st9" d="M482,187.6c-0.6,0-1,0-1.4,0c-25.8,0-51.7,0-77.5,0c-0.2,0-0.5,0-0.7,0c-0.8,0.1-0.9-0.2-0.5-0.9
	c13-25,26.1-50,39.1-74.9c0-0.1,0.1-0.1,0.2-0.3C454.7,136.8,468.3,162.1,482,187.6z M473.6,182.7c-0.2-0.5-0.4-1-0.6-1.4
	c-2.1-4.6-4.3-9.2-6.4-13.8c-1-2.2-1-2.2-3.2-1.2c-0.7,0.3-0.8,0.5-0.5,1.2c1.3,2.8,2.6,5.6,3.9,8.5c0.5,1.1,1,2.1,1.5,3.3
	c-4.1,0-8,0-11.9,0c-2.5,0-2.4,0-2.6,2.4c-0.1,0.9,0.2,1,0.9,1c3.8,0,7.5,0,11.3,0C468.5,182.7,471,182.7,473.6,182.7z M441.1,150.5
	c-3,0-5.3,2.4-5.3,5.5c0,3,2.4,5.3,5.5,5.3c2.9,0,5.3-2.5,5.3-5.4C446.5,152.9,444.1,150.5,441.1,150.5z"/>
<path class="st10" d="M559.7,157.9c0,11.7,0,23.4,0,35c0,1-0.2,1.4-1.3,1.4c-19.8,0-39.7,0-59.5,0c-0.5,0-1.3,0.3-1.5-0.3
	c-0.2-0.9-0.2-1.9,0-2.8c0.1-0.3,0.6-0.2,0.9-0.2c2.4,0,4.8,0,7.2,0c16,0,32.1,0,48.1,0c1,0,1.3-0.2,1.3-1.3c0-22.3,0-44.5,0-66.8
	c0-1.6-0.4-1.5,1.6-1.5c1.1,0,2.5-0.5,3.1,0.3c0.5,0.7,0.2,2,0.2,3C559.7,135.7,559.7,146.8,559.7,157.9z"/>
<path class="st10" d="M485.1,186.3c-2-3.7-4-7.4-6-11.1c-3-5.5-6-11.1-9-16.6c-3.1-5.8-6.2-11.7-9.3-17.5
	c-3.3-6.1-6.6-12.2-9.9-18.3c-0.8-1.5-1.6-3-2.5-4.5c-0.3-0.5-0.3-1.1,0-1.6c0.6-1.1,1.2-2.3,1.8-3.4c0.1-0.2,0.2-0.4,0.5-0.5
	c0.4-0.1,0.4,0.3,0.5,0.5c3.1,5.8,6.3,11.6,9.4,17.5c3.5,6.5,7,13,10.5,19.5c4.6,8.6,9.1,17.1,13.7,25.7c0.2,0.3,0.4,0.6,0.4,1
	c0,3.2,0,6.3,0,9.5C485.3,186.3,485.2,186.3,485.1,186.3z"/>
<path class="st11" d="M397.1,187.8c0-2.4,0-4.8,0-7.2c0-20.2,0-40.4,0-60.6c0-1.2,0.3-2.2,1.3-3c0.9-0.7,1.6-1.6,2.4-2.4
	c0.2-0.2,0.3-0.6,0.6-0.4c0.2,0.1,0.3,0.5,0.2,0.8c-0.2,0.6-0.1,1.3-0.1,1.9c0,20.4,0,40.8,0,61.2c0,1.7-0.5,3.1-1.2,4.5
	c-0.8,1.5-1.5,3-2.3,4.5c-0.2,0.3-0.4,0.6-0.6,0.9C397.2,187.9,397.1,187.8,397.1,187.8z"/>
<path class="st10" d="M494.8,194.2c-28.9,0-57.7,0-86.7,0c0.5-1,0.9-1.9,1.4-2.8c0.2-0.4,0.6-0.5,1-0.5c0.5,0,1,0,1.6,0
	c26.5,0,53.1,0,79.6,0c1.1,0,1.7,0.4,2.1,1.3C494.1,192.8,494.5,193.5,494.8,194.2z"/>
<path class="st10" d="M367.4,194.3c-10.9,0-21.7,0-32.6,0c-1,0-1.3-0.3-1.2-1.3c0.1-2.1,0-2.1,2.1-2.1c21.5,0,43,0,64.5,0
	c1,0,1.3,0.3,1.2,1.3c0,2.1,0,2.1-2.1,2.1C388.7,194.3,378,194.3,367.4,194.3z"/>
<path class="st12" d="M319.2,109.8c0.9,0.9,1.8,1.8,2.6,2.8c0.2,0.3,0.1,0.6,0.1,0.9c0,22.1,0,44.1,0,66.2c0,0.9-0.3,1-1,1
	c-2,0-2,0-2-2c0-22.8,0-45.6,0-68.4C319,110.1,318.9,110,319.2,109.8z"/>
<path class="st13" d="M435.5,108.1c0.5,1,1,2,1.6,2.9c0.3,0.5-0.1,0.8-0.2,1.2c-7.5,14.4-15,28.8-22.5,43.2
	c-3,5.8-6.1,11.7-9.1,17.5c-0.1,0.2-0.1,0.4-0.4,0.4c0-2,0-4,0-6.1c0-0.3,0.2-0.6,0.3-0.9c10-19.2,20-38.4,30-57.6
	C435.3,108.6,435.4,108.4,435.5,108.1z"/>
<path class="st12" d="M482.5,108.9c1.1,1.2,1.9,2.1,2.8,3.1c0.3,0.4,0.2,0.8,0.2,1.3c0,18.6,0,37.3,0,55.9c0,0,0,0.1-0.3,0.3
	c-0.8-2.5-2.8-4.2-2.8-7c0.1-17.6,0-35.3,0-52.9C482.5,109.4,482.5,109.3,482.5,108.9z"/>
<path class="st14" d="M518.9,131.3c-1-1.1-1.8-2-2.6-2.8c-0.3-0.3-0.3-0.7-0.3-1.1c0-6.4,0-12.8,0-19.2c0-0.7,0.2-0.9,0.9-0.9
	c9.2,0,18.4,0,27.6,0c0.7,0,0.9,0.2,0.9,0.9c0,3,0.1,3-2.9,3c-7.4,0-14.8,0-22.2,0c-1,0-1.3,0.2-1.3,1.3
	C519,118.6,518.9,124.8,518.9,131.3z"/>
<path class="st11" d="M333.6,114.3c0-0.2,0-0.2,0-0.3c0.1-0.7-0.3-1.9,0.2-2.1c0.7-0.3,1.2,0.8,1.7,1.3c5.3,5.4,10.6,10.7,15.9,16.1
	c3.5,3.5,6.9,7.1,10.4,10.6c0.5,0.5,0.6,0.9,0.1,1.4c-2.1,2.2-2,2.2-4.3-0.2c-4.1-4.2-8.2-8.4-12.3-12.6c-3.7-3.8-7.4-7.7-11.1-11.5
	C333.2,116.1,333.8,115.1,333.6,114.3z"/>
<path class="st13" d="M389.7,107.2c0,1.7,0,3.1,0,4.6c0,0.5-0.2,0.8-0.5,1.2c-8,8.2-16,16.5-23.9,24.7c-0.5,0.5-0.8,0.5-1.3,0
	c-1.8-1.9-1.8-1.9-0.1-3.7c8.4-8.8,16.8-17.5,25.2-26.3C389.3,107.5,389.4,107.4,389.7,107.2z"/>
<path class="st11" d="M497.6,112.7c2.6,2.9,5.1,5.7,7.7,8.6c4,4.4,8,8.8,12,13.2c1.2,1.2,1.9,2.5,1.6,4.2c-0.1,0.9,0,1.7,0,2.9
	c-5.4-6-10.7-11.8-15.9-17.6c-1.7-1.8-3.3-3.7-5-5.5c-0.5-0.5-0.7-1-0.7-1.8c0.1-1.3,0-2.6,0-3.9
	C497.4,112.8,497.5,112.7,497.6,112.7z"/>
<path class="st9" d="M489.4,114.1c-0.3,0.5-0.3,1.1-0.3,1.6c0,24,0,47.9,0,71.9c-0.2,0-0.4-0.1-0.4-0.3c0-0.2,0-0.5,0-0.7
	c0-24.1,0-48.2,0-72.3c0-0.2,0-0.5,0-0.7C489.2,113.6,489.3,113.8,489.4,114.1z"/>
<path class="st5" d="M405,193c0.1-0.8-0.9-2.1,1.1-2.1C405.6,191.7,405.3,192.4,405,193z"/>
<path class="st9" d="M205.9,151c6.7,3,13.2,5.9,19.7,8.7c7,3.1,14,6.2,21,9.3c0.8,0.3,0.9,0.6,0.5,1.4
	c-6.4,10.7-15.6,17.5-27.9,19.6c-21,3.6-40.8-9.9-45.3-30.7c-4.9-22.4,10.7-44.8,33.5-47.5c15.6-1.9,28.1,3.8,37.5,16.3
	c0.7,0.9,0.5,1.2-0.4,1.7c-12.6,6.9-25.3,13.9-37.9,20.9C206.4,150.7,206.3,150.8,205.9,151z M234.6,172.3c-1,1.3-2.1,2.3-3.3,3.3
	c-5.2,4.2-11.2,6-17.7,6.3c-2.2,0.1-2.1,0.1-2.2,2.3c0,0.9,0.2,1.2,1.1,1.1c3.5-0.1,6.9-0.5,10.3-1.6c6.7-2.1,12.4-5.7,16.2-11.8
	c0.6-0.9,0.4-1.2-0.5-1.6c-8.4-3.7-16.8-7.4-25.2-11.1c-2.2-1-2.1-0.9-3.2,1.2c-0.4,0.8-0.1,1,0.5,1.3c3.2,1.4,6.4,2.8,9.6,4.3
	C225,168.1,229.8,170.2,234.6,172.3z"/>
<path class="st9" d="M65.8,187.6c-0.4,0-0.7,0.1-1.1,0.1c-9,0-18,0-27,0c-0.9,0-1.2-0.1-1.2-1.1c0-23.4,0-46.8,0-70.3
	c0-0.9,0.2-1.1,1.1-1.1c12.1,0,24.2-0.2,36.3,0.1c9.1,0.2,16.7,3.9,21.8,11.8c1.5,2.4,2.5,5.1,2.7,8c0,2.6,0,5.1,0,7.7
	c-0.8,7.8-4.6,13.6-11.4,17.5c-3.8,2.1-7.9,3.2-12.3,3.2c-2.5,0-5,0-7.5,0c-0.4,0-0.8-0.1-1.1,0.2c-0.4,0.4-0.3,0.9-0.3,1.4
	C65.8,172.4,65.8,180,65.8,187.6z M61.6,183.2c0.6-0.3,0.3-0.9,0.3-1.3c0-7.6,0-15.1,0-22.7c3,0,6-0.1,9,0c2.7,0,5.4-0.3,8.1-0.9
	c9-2.1,14.3-7.9,15.2-16.4c0.2-2.3,0.2-2.2-2.1-2.3c-1,0-1.2,0.3-1.2,1.2c-0.3,6.4-3.5,10.8-9.4,13.2c-3.1,1.3-6.4,1.9-9.7,1.9
	c-4.5,0-9,0-13.4,0c-0.5,0.4-0.3,0.9-0.3,1.3c0,7.5,0,15.1,0,22.6c-4,0-8.1,0-12.1,0c-2.2,0-2.1,0-2.2,2.2c0,1.1,0.3,1.2,1.3,1.2
	C50.6,183.2,56.1,183.2,61.6,183.2z M73.3,138.5c0-1.9-1.6-3.4-3.5-3.4c-1.8,0-3.6,1.8-3.5,3.5c0.1,1.7,1.9,3.3,3.6,3.3
	C71.8,141.9,73.3,140.4,73.3,138.5z"/>
<path class="st9" d="M170.9,187.6c-27.2,0-54.2,0-81.5,0c13.3-25.4,26.4-50.7,39.7-76.3C143.1,136.8,157,162.1,170.9,187.6z
	 M142.1,182.9c0.2,0.4,0.6,0.3,1,0.3c6.2,0,12.4,0,18.6,0c0.4,0,0.8,0.1,1-0.4c-2.7-5.1-5.3-10.2-8-15.3c-1.1-2.1-1.1-2.1-3.2-1
	c-0.7,0.3-0.8,0.6-0.4,1.3c1.9,3.5,3.7,7.1,5.6,10.7c0.1,0.3,0.5,0.6,0.3,1c-4.1,0-8.1,0-12.2,0c-3,0-3,0-2.8,3
	C142,182.7,142.1,182.8,142.1,182.9z M129.3,161.4c3,0,5.4-2.4,5.4-5.4c0-2.9-2.4-5.3-5.3-5.4c-3,0-5.4,2.4-5.4,5.4
	C123.8,159,126.2,161.4,129.3,161.4z"/>
<path class="st10" d="M138.9,112.5c2.2,4.1,4.4,8,6.5,11.8c3.4,6.1,6.7,12.3,10.1,18.4c3.4,6.3,6.9,12.6,10.3,18.9
	c4.1,7.5,8.2,15.1,12.3,22.6c1.7,3,3.3,6,5,9c0.5,0.9,0.3,1-0.6,1c-28.3,0-56.5,0-84.8,0c-1.4,0-1.3,0-0.8-1.3
	c0.6-1.7,1.5-2.1,3.3-2.1c24.9,0.1,49.7,0.1,74.6,0.1c0.2,0,0.5,0,0.7,0c0.8,0.1,0.8-0.3,0.5-0.8c-1.6-2.9-3.3-5.9-4.9-8.8
	c-3.3-6.1-6.6-12.2-10-18.3c-2.8-5.1-5.7-10.3-8.5-15.4c-4.2-7.6-8.4-15.3-12.5-23c-1.2-2.2-2.4-4.4-3.6-6.6
	c-0.2-0.3-0.3-0.6-0.2-0.9C137.2,115.6,138,114.2,138.9,112.5z"/>
<path class="st10" d="M102.1,137.4c0.8,1.1,0.9,2.5,1.1,3.8c0.5,3,0.4,6,0,8.9c-1,7.7-5.1,15.2-13.9,18.3c-3.3,1.2-6.7,1.5-10.2,1.4
	c-1.4,0-2.8,0.1-4.2,0c-0.9-0.1-1,0.3-1,1.1c0,7.4,0,14.8,0,22.2c0,1-0.2,1.3-1.3,1.3c-9.4-0.1-18.8-0.1-28.2,0
	c-1.1,0-1.3-0.3-1.3-1.3c0.1-2.1,0-2.1,2.1-2.1c7.6,0,15.3,0,22.9,0c1.1,0,1.4-0.4,1.4-1.5c0-7.2,0-14.5,0-21.7c0-1,0.3-1.3,1.3-1.3
	c2.2,0.1,4.3,0.1,6.5-0.1c5.2-0.3,9.8-2.2,14.1-5.2c3.7-2.6,6.4-6,8.3-10.1c1.2-2.7,2-5.5,2.2-8.5
	C101.9,140.9,102.5,139.2,102.1,137.4z"/>
<path class="st14" d="M81.1,112.6c-5-1.3-10-0.8-15-0.8c-10.5-0.1-21,0-31.6,0c-1.1,0-1.3,0.3-1.3,1.3c0,22.1,0,44.2,0.1,66.3
	c0,1.2-0.3,1.5-1.4,1.4c-2-0.1-2,0-2-2.1c0-23,0-46.1,0-69.1c0-1.1,0.2-1.4,1.3-1.4c12.4,0.1,24.7,0,37.1,0.1
	C72.2,108.4,78.3,110.4,81.1,112.6z"/>
<path class="st13" d="M172.2,166.3c-1.5-2.7-2.9-5.4-4.4-8.1c-1-1.7-1.1-3.5-1.3-5.3c-1-11.5,1.7-21.8,9.3-30.6
	c7.1-8.3,16.2-12.9,27.1-13.8c0.6-0.1,1.2-0.1,1.8-0.2c0,0.1,0,0.3,0,0.4c-8.2,1.5-15.5,5.1-21.4,11c-13,12.9-16.5,28.3-11,45.7
	c0.1,0.2,0.1,0.5,0.2,0.7C172.3,166.2,172.3,166.3,172.2,166.3z"/>
<path class="st11" d="M200.3,192.5c1.1-0.3,1.9,0.1,2.6,0.3c4.5,1.1,9,1.2,13.5,0.9c2.9-0.2,5.7-0.9,8.5-1.7
	c3.8-1.1,7.4-2.8,10.7-4.9c2.2-1.4,4.3-3,6.2-4.8c2.2-2.1,4.2-4.3,5.9-6.8c0.8-1.2,1.6,0.1,2.4,0.3c0.8,0.2,0.4,0.8,0.1,1.3
	c-3.6,6.4-8.5,11.5-15.1,15c-3.5,1.8-7.1,3-11,3.7c-3.3,0.6-6.6,0.5-9.9,0.4c-3.4-0.1-6.6-1-9.8-2.1
	C203.2,193.6,201.9,193.1,200.3,192.5z"/>
<path class="st11" d="M217.6,152.5c-1.2-0.5-2.5-1-3.7-1.6c-0.6-0.3,0-0.6,0.3-0.7c1.7-1,3.4-1.9,5.1-2.9c4.5-2.5,9-4.9,13.5-7.4
	c3.3-1.8,6.5-3.7,9.8-5.5c0.6-0.4,1.2-0.4,1.7,0.4c1.4,2,1.4,2-0.7,3.2c-6.8,3.9-13.7,7.7-20.5,11.6c-1.6,0.9-3.1,1.7-4.7,2.7
	C218.2,152.4,218,152.5,217.6,152.5z"/>
<path class="st13" d="M106.8,146.6c0-1.7,0-3.4-0.2-5.2c0-0.3,0.1-0.6,0.2-0.9c5.6-10.7,11.2-21.4,16.8-32.3c0.6,1,1.1,2,1.6,2.9
	c0.2,0.4,0,0.6-0.1,0.9c-6,11.5-12,23-18,34.4C107.1,146.5,107.1,146.7,106.8,146.6z"/>
<path class="st13" d="M221.6,154.3c1.2-0.7,2.4-1.4,3.5-2c0.4-0.2,0.7,0,1,0.2c5.1,2.2,10.1,4.5,15.2,6.7c0.7,0.3,0.7,0.5,0.4,1.2
	c-1.3,2.4-1.2,2.4-3.6,1.3c-5.2-2.3-10.4-4.6-15.6-6.9C222.3,154.6,222,154.5,221.6,154.3z"/>
<path class="st13" d="M95.2,169.3c-2,3.8-3.9,7.5-5.8,11.1c-0.2,0.3-0.4,0.5-0.7,0.5c-0.9,0-1.8,0-2.9,0c1.1-2.2,2.3-4.2,3.2-6.3
	c0.9-2.1,2.1-3.7,4.4-4.3C93.9,170.1,94.4,169.7,95.2,169.3z"/>
<path class="st12" d="M184.7,185.6c-1.3-0.7-2.7-1.3-3.5-2.7c-1.1-2.1-2.3-4.2-3.3-6.4C180.2,179.5,182.2,182.8,184.7,185.6z"/>
<path class="st9" d="M65.8,187.6c0-7.6,0-15.1,0-22.7c0-0.5-0.2-1,0.3-1.4c0,4.3,0,8.6,0.1,12.8c0,3.4,0,6.8,0,10.2
	C66.1,186.9,66.4,187.4,65.8,187.6z"/>
<path class="st9" d="M98.4,142.6c0-2.6,0-5.1,0-7.7C98.9,137.5,98.9,140.1,98.4,142.6z"/>
<path class="st5" d="M204.6,108.8c0-0.1,0-0.3,0-0.4c0.4,0,0.8,0,1.2,0C205.4,108.6,205.1,108.9,204.6,108.8z"/>
<path class="st13" d="M172.4,166.1c0.3,0.2,0.3,0.4,0.1,0.7c-0.3-0.1-0.1-0.4-0.3-0.6C172.3,166.3,172.3,166.2,172.4,166.1z"/>
<path class="st4" d="M185.5,190.5c0-0.1-0.1-0.2-0.1-0.2c0.1,0,0.2,0,0.3,0.1C185.6,190.4,185.6,190.4,185.5,190.5z"/>
<path class="st12" d="M177.8,176.1c0,0-0.1,0.1-0.1,0.1c0,0-0.1-0.1-0.1-0.1C177.7,176.1,177.7,176.1,177.8,176.1
	C177.8,176.1,177.8,176.1,177.8,176.1z"/>
<path class="st8" d="M299.5,143.1c0,4.4,0,8.8,0,13.2c-10,0-19.9,0-29.9,0c-1.1,0-1.4-0.3-1.3-1.3c0.1-3.5,0.1-7,0-10.4
	c0-1.2,0.3-1.5,1.5-1.5C279.7,143.2,289.6,143.1,299.5,143.1z"/>
<path class="st14" d="M277.2,135.2c4.9,0,9.8,0,14.6,0c0.9,0,1.3,0.1,1.2,1.1c-0.1,0.9,0.3,2.2-0.2,2.8c-0.6,0.7-1.9,0.2-2.9,0.2
	c-8.1,0-16.2,0-24.2,0c-1,0-1.3,0.3-1.2,1.3c0.1,2.6,0,5.1,0,7.7c0,0.7-0.1,1.1-1,1c-2.3,0-2.3,0-2.3-2.2c0-3.5,0.1-7,0-10.6
	c0-1.2,0.4-1.3,1.4-1.3C267.5,135.3,272.4,135.2,277.2,135.2z"/>
<path class="st10" d="M290.5,163.6c-4.9,0-9.8,0-14.6,0c-1,0-1.3-0.3-1.3-1.3c0.1-2.6-0.4-2.2,2.2-2.2c8.3,0,16.5,0,24.8,0
	c1,0,1.3-0.3,1.2-1.3c-0.1-2.8,0-5.5,0-8.3c0-0.8,0.2-1,1-1c2.5,0,2.5,0,2.5,2.4c0,3.5,0,7,0,10.5c0,0.9-0.3,1.1-1.1,1.1
	C300.4,163.6,295.5,163.6,290.5,163.6C290.5,163.6,290.5,163.6,290.5,163.6z"/>
<path class="st9" d="M299.5,143.1c-9.9,0-19.8,0-29.7,0c-1.2,0-1.5,0.3-1.5,1.5c0.1,3.5,0.1,7,0,10.4c0,1.1,0.3,1.4,1.3,1.3
	c10,0,19.9,0,29.9,0c0,0.8-0.6,0.4-1,0.4c-4.6,0-9.3,0-13.9,0c-5.2,0-10.5,0-15.7,0c-0.9,0-1.1-0.2-1.1-1.1c0-4,0-8,0-12
	c0-0.8,0.2-1.1,1-1.1c9.9,0,19.8,0,29.6,0C298.9,142.7,299.5,142.3,299.5,143.1z"/>
<path class="st7" d="M527.9,182.9c0-0.1-0.1-0.2-0.1-0.2c0.2-1.1-0.2-2.2,0.2-3.3c0.5,0.3,1,0.1,1.5,0.1c4.6,0,9.2,0,13.9-0.1
	c0.7,0,0.4-0.5,0.4-0.8c0-4.2,0-8.4,0-12.6c3.4-0.4,3.4-0.4,3.4,2.9c0,4.6,0,9.2,0,13.9c-0.5,0-1,0.1-1.4,0.1
	C539.8,182.9,533.8,182.9,527.9,182.9z"/>
<path class="st9" d="M527.9,182.9c6,0,11.9,0,17.9,0c0.5,0,1-0.1,1.4-0.1c-0.1,0.4-0.4,0.4-0.7,0.4c-6.1,0-12.2,0-18.3,0
	c-0.1,0-0.2-0.1-0.3-0.1C527.8,183.1,527.8,183.1,527.9,182.9C527.8,183,527.8,183,527.9,182.9z"/>
<path class="st9" d="M543.8,166c0,4.2,0,8.4,0,12.6c0,0.3,0.3,0.9-0.4,0.8c0-4.1,0-8.2,0-12.2C543.4,166.8,543.1,166.2,543.8,166z"
	/>
<path class="st9" d="M528,179.4c-0.4,1.1-0.1,2.2-0.2,3.3c-0.5-0.9-0.1-1.9-0.2-2.8C527.5,179.7,527.7,179.5,528,179.4z"/>
<path class="st6" d="M389.4,182.7c0,0.1-0.1,0.1-0.1,0.2c-6.4,0-12.8,0-19.2,0c-0.2-3.3-0.2-3.3,3-3.3c4,0,7.9,0,11.9,0
	c0.9,0,1.1-0.3,1.1-1.1c-0.1-3.8,0-7.7,0-11.5c0-0.9,0.2-1.1,1.1-1c0.7,0.1,1.5,0.1,2.3,0.1C389.4,171.6,389.4,177.1,389.4,182.7z"
	/>
<path class="st9" d="M370.1,182.9c6.4,0,12.8,0,19.2,0c-0.3,0.5-0.7,0.3-1.1,0.3c-5.7,0-11.3,0-17,0
	C370.8,183.2,370.4,183.4,370.1,182.9z"/>
<path class="st9" d="M389.4,182.7c0-5.6,0-11.2,0-16.7c0.5,0.2,0.4,0.6,0.4,1c0,4.9,0,9.8,0,14.7
	C389.8,182.1,389.9,182.5,389.4,182.7z"/>
<path class="st6" d="M473.6,182.7c-2.6,0-5.1,0-7.5,0c-3.8,0-7.5,0-11.3,0c-0.7,0-1-0.1-0.9-1c0.2-2.4,0.1-2.4,2.6-2.4
	c3.9,0,7.8,0,11.9,0c-0.5-1.2-1-2.3-1.5-3.3c-1.3-2.8-2.6-5.7-3.9-8.5c-0.3-0.7-0.2-0.9,0.5-1.2c2.2-1,2.2-1,3.2,1.2
	c2.1,4.6,4.3,9.2,6.4,13.8C473.2,181.7,473.4,182.2,473.6,182.7z"/>
<path class="st6" d="M441.1,150.5c3,0,5.4,2.4,5.4,5.4c0,2.9-2.3,5.3-5.3,5.4c-3,0-5.4-2.3-5.5-5.3
	C435.8,152.9,438.1,150.5,441.1,150.5z"/>
<path class="st6" d="M234.6,172.3c-4.8-2.1-9.6-4.2-14.3-6.3c-3.2-1.4-6.4-2.9-9.6-4.3c-0.7-0.3-0.9-0.5-0.5-1.3
	c1-2.2,1-2.2,3.2-1.2c8.4,3.7,16.8,7.4,25.2,11.1c0.9,0.4,1.1,0.7,0.5,1.6c-3.9,6.1-9.5,9.7-16.2,11.8c-3.3,1-6.8,1.5-10.3,1.6
	c-0.9,0-1.1-0.3-1.1-1.1c0.1-2.1,0-2.2,2.2-2.3c6.5-0.3,12.6-2.2,17.7-6.3C232.5,174.6,233.6,173.6,234.6,172.3z"/>
<path class="st6" d="M58.4,155.9c4.5,0,9,0,13.4,0c3.3,0,6.6-0.6,9.7-1.9c5.9-2.5,9.1-6.8,9.4-13.2c0-0.9,0.2-1.2,1.2-1.2
	c2.3,0.1,2.3,0,2.1,2.3c-0.9,8.6-6.2,14.3-15.2,16.4c-2.7,0.6-5.3,1-8.1,0.9c-3,0-6,0-9,0c-0.5,0.2-0.3,0.7-0.3,1
	c0,5.8,0,11.6,0,17.4c0,1.8,0,3.7-0.1,5.5c-5.5,0-11,0-16.5,0c-0.9,0-1.3-0.1-1.3-1.2c0.1-2.2,0-2.2,2.2-2.2c4,0,8.1,0,12.1,0
	c0.5-0.3,0.2-0.8,0.2-1.2C58.4,171,58.4,163.5,58.4,155.9z"/>
<path class="st6" d="M73.3,138.5c0,1.9-1.5,3.4-3.4,3.5c-1.7,0-3.6-1.7-3.6-3.3c-0.1-1.7,1.7-3.5,3.5-3.5
	C71.7,135.1,73.3,136.6,73.3,138.5z"/>
<path class="st9" d="M58.4,155.9c0,7.6,0,15.2,0,22.8c0,0.4,0.3,0.9-0.2,1.2c0-7.5,0-15.1,0-22.6C58.1,156.8,57.9,156.2,58.4,155.9z
	"/>
<path class="st9" d="M61.6,183.2c0-1.8,0.1-3.7,0.1-5.5c0-5.8,0-11.6,0-17.4c0-0.3-0.3-0.8,0.3-1c0,7.6,0,15.1,0,22.7
	C61.9,182.3,62.2,182.9,61.6,183.2z"/>
<path class="st6" d="M142.1,182.9c0-0.1-0.1-0.2-0.1-0.3c-0.3-3-0.2-3,2.8-3c4.1,0,8.1,0,12.2,0c0.2-0.5-0.1-0.7-0.3-1
	c-1.8-3.6-3.7-7.2-5.6-10.7c-0.4-0.7-0.3-1,0.4-1.3c2.2-1.1,2.1-1.1,3.2,1c2.6,5.1,5.3,10.2,8,15.3c-0.5,0-1,0.1-1.4,0.1
	C154.9,182.9,148.5,182.9,142.1,182.9z"/>
<path class="st6" d="M129.3,161.4c-3,0-5.4-2.4-5.4-5.4c0-3,2.5-5.4,5.4-5.4c2.9,0,5.3,2.4,5.3,5.4
	C134.6,159,132.3,161.4,129.3,161.4z"/>
<path class="st9" d="M142.1,182.9c6.4,0,12.8,0,19.2,0c0.5,0,1,0,1.4-0.1c-0.2,0.5-0.6,0.4-1,0.4c-6.2,0-12.4,0-18.6,0
	C142.7,183.2,142.3,183.3,142.1,182.9z"/>
<path class="st15" d="M128.1,26.8c1.6-0.3,2.5-0.4,4.1-0.6c0.1,1.1,0.2,1.6,0.4,2.7c1-2.1,3-3.9,5.3-4.2c2.5-0.4,4.8,1,5.6,3.2
	c0.7-2.6,3.1-4.5,5.8-4.8c1.6-0.2,3.4,0.1,4.7,1.6c1.5,1.6,1.7,4,2,6.2c1,7.7,1.5,11.6,2.6,19.4c-1.6,0.2-2.5,0.3-4.1,0.6
	c-1.1-7.7-1.6-11.6-2.6-19.3c-0.2-1.2-0.2-2.8-0.9-3.9c-0.6-0.9-1.5-1.3-2.4-1.2c-1.7,0.2-2.6,2.1-2.9,2.9c-0.8,1.8-0.8,3-0.6,4.4
	c1,7.2,1.5,10.8,2.6,17.9c-1.6,0.2-2.4,0.4-4.1,0.6c-1.1-7.5-1.7-11.3-2.8-18.9c-0.2-1.1-0.3-2.4-0.8-3.5c-0.7-1.4-1.9-1.9-2.9-1.7
	c-1.1,0.2-2.3,1.1-3,3c-0.6,1.5-0.5,2.7-0.3,4c1.1,7.2,1.7,10.8,2.8,18.1c-1.6,0.2-2.4,0.4-4,0.6C130.7,43,129.8,37.6,128.1,26.8z"
	/>
<path class="st15" d="M165.1,21.6c0.7,6.1,1.1,9.1,1.9,15.2c0.2,1.8,0.5,4,1.7,5.8c1.4,2,3.5,2.9,5.7,2.7c2.7-0.3,4.9-2.3,6-4.8
	c0.7-1.8,0.7-3.4,0.5-5.5c-0.7-6-1-9-1.6-15c1.8-0.2,2.7-0.3,4.5-0.5c1,9.9,1.6,14.9,2.6,24.8c0.1,0.8,0.2,1.7,0.6,2.4
	c-1.8,0.2-2.8,0.3-4.6,0.5c-0.2-0.7-0.3-1.4-0.3-2.1c-0.1-0.8-0.1-1.2-0.2-2.1c-1.5,3.2-4.5,5.4-8,5.8c-3.6,0.4-7.2-1.1-9.3-4.5
	c-1.4-2.3-1.7-4.6-2-7c-0.8-6.1-1.1-9.1-1.9-15.2C162.4,21.9,163.3,21.8,165.1,21.6z"/>
<path class="st15" d="M204.5,4.9c1,12.1,2.1,24.2,3.1,36.3c3.3-0.3,4.9-0.4,8.2-0.7c0.1,1.4,0.2,2.1,0.3,3.5
	c-8.3,0.6-12.5,1-20.8,1.8c-0.1-1.4-0.2-2.1-0.3-3.5c3.3-0.3,4.9-0.5,8.2-0.8c-1-10.9-1.9-21.9-2.9-32.8c-3.2,0.3-4.9,0.4-8.1,0.8
	c-0.1-1.4-0.2-2.1-0.3-3.5C196.8,5.6,199.4,5.4,204.5,4.9z"/>
<path class="st15" d="M235,7.1c0.3,0.6-0.2,1-0.3,1.6c-0.2,1.5-0.4,6.5-0.4,6.5c3.7-0.2,5.6-0.3,9.3-0.5c0.1,1.4,0.1,2.1,0.2,3.6
	c-3.7,0.2-5.6,0.3-9.3,0.5c-0.2,3.6-0.1,7.2,0.1,10.7c0.2,4,0.4,5,0.5,5.2c0.6,3.3,2.9,4.3,4.9,4.2c1.7-0.1,3.8-1,6.1-2.8
	c0.6,1.3,0.9,2,1.5,3.3c-2.3,1.8-5.4,3.3-8.7,3.5c-2.8,0.2-5.1-0.8-6.5-2.5c-1.8-2.1-2-4.9-2.1-7.3c-0.3-4.6-0.4-9.3-0.3-14
	c-2.7,0.2-4,0.3-6.6,0.4c-0.1-1.4-0.1-2.1-0.2-3.5c2.7-0.2,4.1-0.3,6.8-0.4c0-2.9,0.1-4.4,0.1-7.4C232,7.8,233,7.6,235,7.1z"/>
<path class="st15" d="M268,13.8c0.3,9.6,0.4,14.4,0.6,24c2.6-0.1,3.9-0.1,6.5-0.2c0,1.4,0,2.1,0.1,3.5c-7.2,0.1-10.8,0.3-18,0.5
	c-0.1-1.4-0.1-2.1-0.1-3.5c2.8-0.1,4.3-0.2,7.1-0.2c-0.3-8.2-0.4-12.3-0.6-20.4c-2.7,0.1-4.1,0.1-6.9,0.2c-0.1-1.4-0.1-2.1-0.1-3.5
	C261.1,14,263.4,14,268,13.8z M268.8,5c0,1.7-1.4,3.1-3.2,3.2c-1.8,0.1-3.3-1.3-3.3-3c-0.1-1.7,1.4-3.1,3.2-3.2
	C267.3,1.9,268.8,3.3,268.8,5z"/>
<path class="st15" d="M289.4,13.5c0,1.7,0,2.5,0,4.2c1.9-3,5.3-4.8,9-4.8c5.6,0,11.5,4.4,11.4,14.1c-0.1,10-6.2,14.7-11.8,14.7
	c-3.4,0-6.5-1.6-8.4-4.3c0,5.4,0.1,8.2,0.1,13.6c-1.8,0-2.6,0-4.4,0c-0.2-12.5-0.3-24.9-0.5-37.4C286.7,13.6,287.6,13.6,289.4,13.5z
	 M290.2,20.6c-0.6,1.4-0.7,3.1-0.7,5.4c0,4,0,6.2,0.9,8.1c1.1,2.5,3.7,3.8,6.4,3.8c2.6,0,8.4-1.3,8.5-10c0.1-9.9-5.9-11.2-8.4-11.2
	C293.9,16.6,291.3,18.1,290.2,20.6z"/>
<path class="st15" d="M330.6,1.6c-0.4,12.1-0.8,24.3-1.1,36.4c3.3,0.1,4.9,0.2,8.2,0.3c-0.1,1.4-0.1,2.1-0.1,3.5
	c-8.3-0.3-12.5-0.4-20.8-0.6c0-1.4,0-2.1,0.1-3.5c3.3,0.1,5,0.1,8.3,0.2c0.3-11,0.6-21.9,0.9-32.9c-3.3-0.1-4.9-0.1-8.1-0.2
	c0-1.4,0-2.1,0.1-3.5C322.9,1.3,325.5,1.4,330.6,1.6z"/>
<path class="st15" d="M359.3,14.7c4.4,0.3,7.9,2.1,9.6,5.2c1.2,2.2,1.1,4.3,0.9,6.6c-0.5,6.8-0.7,10.2-1.2,16.9
	c-1.7-0.1-2.5-0.2-4.1-0.3c0.1-1.2,0.1-1.8,0.2-3c-3.2,2.2-6.8,3.3-10.2,3.1c-5.8-0.3-9.2-4.2-9-8.2c0.1-3,2.3-6.1,6.8-7.5
	c3.6-1.1,8.1-0.8,12.2-0.5c0.4,0,0.5,0,0.9,0.1c0-0.4,0-0.6,0.1-1c0.1-1.4,0.2-3.2-0.6-4.8c-0.7-1.3-2.3-2.8-5.7-3
	c-2.6-0.2-5.9,0.4-8.3,2.6c-0.8-1.1-1.2-1.7-2.1-2.9C351.8,15.5,355.5,14.5,359.3,14.7z M364.5,30.2c-2.9-0.2-6.7-0.6-9.2-0.1
	c-3.6,0.6-5.1,2.8-5.2,4.8c-0.1,2.4,1.9,4.8,5.6,5.1c3.6,0.2,6.4-1.8,7.5-2.8c2-1.8,2.1-3.6,2.2-5c0-0.7,0.1-1.1,0.1-1.8
	C365.1,30.3,364.9,30.3,364.5,30.2z"/>
<path class="st15" d="M383.1,17c0,0.5-0.3,0.8-0.4,1.3c0,0.2,0,0.3,0.1,0.5c2.7,8.3,4,12.5,6.5,20.8c2.6-5.7,4-8.5,6.7-14.2
	c1.1-2.3,2.1-4.6,2.8-7.1c1.9,0.2,2.8,0.3,4.7,0.5c-1.1,2.6-2.3,5.1-3.6,7.6c-4.4,8.7-6.5,13-10.8,21.7c-0.7,1.5-1.4,2.9-2.8,4.1
	c-2,1.9-4.7,2.6-7.1,2.4c-2.3-0.2-4.3-1.1-5.8-2.7c1-1.5,1.5-2.2,2.5-3.7c0.3,0.3,0.3,0.7,0.4,1c0.1,0.3,1.1,1.7,3.1,1.9
	c1.3,0.1,2.7-0.3,4-1.5c1-0.8,1.6-2,2.2-3c0.4-0.8,0.6-1.2,1.1-1.9c-3-9.4-6-18.8-9.2-28.1C379.7,16.7,380.8,16.8,383.1,17z"/>
<path class="st15" d="M431.9,31.2c0.1,1.6-0.1,3.4-0.5,5.2c-7.9-1-11.9-1.5-19.8-2.3c-0.6,8.2,4.6,10.8,8.3,11.2
	c2.8,0.3,5.5-0.4,7.6-2.2c0.8,1,1.3,1.6,2.1,2.6c-2.7,2.5-6.5,3.5-10.4,3c-7.5-0.9-12.8-6.3-11.8-15.4c1-10,7.8-14,14.6-13.2
	C426.5,20.7,431.5,23.7,431.9,31.2z M427.5,32.6c1.1-4.3-1.7-8.6-6.3-9.2c-3-0.4-7.6,1-9.1,7.4C418.2,31.4,421.3,31.8,427.5,32.6z"
	/>
<path class="st15" d="M447.6,24.1c-0.4,2.1-0.5,3.1-0.9,5.2c2.4-3.6,6.9-5,11-4.4c3.2,0.5,5.6,2.1,7.1,4.1c-1.1,1.5-1.6,2.3-2.7,3.8
	c-0.4-0.5-0.5-1-0.8-1.5c-0.6-1.1-2-2.4-4.3-2.7c-2-0.3-5.5-0.1-8.6,3.4c-2.3,2.6-2.6,4.4-2.9,6.1c-0.7,5.3-1.1,7.9-1.9,13.2
	c-1.7-0.2-2.6-0.4-4.4-0.6c1.5-10.9,2.2-16.3,3.7-27.2C444.8,23.8,445.7,23.9,447.6,24.1z"/>
<path class="st10" d="M126.1,24.8c1.6-0.3,2.5-0.4,4.1-0.6c0.1,1.1,0.2,1.6,0.4,2.7c1-2.1,3-3.9,5.3-4.2c2.5-0.4,4.8,1,5.6,3.2
	c0.7-2.6,3.1-4.5,5.8-4.8c1.6-0.2,3.4,0.1,4.7,1.6c1.5,1.6,1.7,4,2,6.2c1,7.7,1.5,11.6,2.6,19.4c-1.6,0.2-2.5,0.3-4.1,0.6
	c-1.1-7.7-1.6-11.6-2.6-19.3c-0.2-1.2-0.2-2.8-0.9-3.9c-0.6-0.9-1.5-1.3-2.4-1.2c-1.7,0.2-2.6,2.1-2.9,2.9c-0.8,1.8-0.8,3-0.6,4.4
	c1,7.2,1.5,10.8,2.6,17.9c-1.6,0.2-2.4,0.4-4.1,0.6c-1.1-7.5-1.7-11.3-2.8-18.9c-0.2-1.1-0.3-2.4-0.8-3.5c-0.7-1.4-1.9-1.9-2.9-1.7
	c-1.1,0.2-2.3,1.1-3,3c-0.6,1.5-0.5,2.7-0.3,4c1.1,7.2,1.7,10.8,2.8,18.1c-1.6,0.2-2.4,0.4-4,0.6C128.7,41,127.8,35.6,126.1,24.8z"
	/>
<path class="st10" d="M163.1,19.6c0.7,6.1,1.1,9.1,1.9,15.2c0.2,1.8,0.5,4,1.7,5.8c1.4,2,3.5,2.9,5.7,2.7c2.7-0.3,4.9-2.3,6-4.8
	c0.7-1.8,0.7-3.4,0.5-5.5c-0.7-6-1-9-1.6-15c1.8-0.2,2.7-0.3,4.5-0.5c1,9.9,1.6,14.9,2.6,24.8c0.1,0.8,0.2,1.7,0.6,2.4
	c-1.8,0.2-2.8,0.3-4.6,0.5c-0.2-0.7-0.3-1.4-0.3-2.1c-0.1-0.8-0.1-1.2-0.2-2.1c-1.5,3.2-4.5,5.4-8,5.8c-3.6,0.4-7.2-1.1-9.3-4.5
	c-1.4-2.3-1.7-4.6-2-7c-0.8-6.1-1.1-9.1-1.9-15.2C160.4,19.9,161.3,19.8,163.1,19.6z"/>
<path class="st10" d="M202.5,2.9c1,12.1,2.1,24.2,3.1,36.3c3.3-0.3,4.9-0.4,8.2-0.7c0.1,1.4,0.2,2.1,0.3,3.5
	c-8.3,0.6-12.5,1-20.8,1.8c-0.1-1.4-0.2-2.1-0.3-3.5c3.3-0.3,4.9-0.5,8.2-0.8c-1-10.9-1.9-21.9-2.9-32.8c-3.2,0.3-4.9,0.4-8.1,0.8
	c-0.1-1.4-0.2-2.1-0.3-3.5C194.8,3.6,197.4,3.4,202.5,2.9z"/>
<path class="st10" d="M233,5.1c0.3,0.6-0.2,1-0.3,1.6c-0.2,1.5-0.4,6.5-0.4,6.5c3.7-0.2,5.6-0.3,9.3-0.5c0.1,1.4,0.1,2.1,0.2,3.6
	c-3.7,0.2-5.6,0.3-9.3,0.5c-0.2,3.6-0.1,7.2,0.1,10.7c0.2,4,0.4,5,0.5,5.2c0.6,3.3,2.9,4.3,4.9,4.2c1.7-0.1,3.8-1,6.1-2.8
	c0.6,1.3,0.9,2,1.5,3.3c-2.3,1.8-5.4,3.3-8.7,3.5c-2.8,0.2-5.1-0.8-6.5-2.5c-1.8-2.1-2-4.9-2.1-7.3c-0.3-4.6-0.4-9.3-0.3-14
	c-2.7,0.2-4,0.3-6.6,0.4c-0.1-1.4-0.1-2.1-0.2-3.5c2.7-0.2,4.1-0.3,6.8-0.4c0-2.9,0.1-4.4,0.1-7.4C230,5.8,231,5.6,233,5.1z"/>
<path class="st10" d="M266,11.8c0.3,9.6,0.4,14.4,0.6,24c2.6-0.1,3.9-0.1,6.5-0.2c0,1.4,0,2.1,0.1,3.5c-7.2,0.1-10.8,0.3-18,0.5
	c-0.1-1.4-0.1-2.1-0.1-3.5c2.8-0.1,4.3-0.2,7.1-0.2c-0.3-8.2-0.4-12.3-0.6-20.4c-2.7,0.1-4.1,0.1-6.9,0.2c-0.1-1.4-0.1-2.1-0.1-3.5
	C259.1,12,261.4,12,266,11.8z M266.8,3c0,1.7-1.4,3.1-3.2,3.2c-1.8,0.1-3.3-1.3-3.3-3c-0.1-1.7,1.4-3.1,3.2-3.2
	C265.3-0.1,266.8,1.3,266.8,3z"/>
<path class="st10" d="M287.4,11.5c0,1.7,0,2.5,0,4.2c1.9-3,5.3-4.8,9-4.8c5.6,0,11.5,4.4,11.4,14.1c-0.1,10-6.2,14.7-11.8,14.7
	c-3.4,0-6.5-1.6-8.4-4.3c0,5.4,0.1,8.2,0.1,13.6c-1.8,0-2.6,0-4.4,0c-0.2-12.5-0.3-24.9-0.5-37.4C284.7,11.6,285.6,11.6,287.4,11.5z
	 M288.2,18.6c-0.6,1.4-0.7,3.1-0.7,5.4c0,4,0,6.2,0.9,8.1c1.1,2.5,3.7,3.8,6.4,3.8c2.6,0,8.4-1.3,8.5-10c0.1-9.9-5.9-11.2-8.4-11.2
	C291.9,14.6,289.3,16.1,288.2,18.6z"/>
<path class="st10" d="M328.6-0.4c-0.4,12.1-0.8,24.3-1.1,36.4c3.3,0.1,4.9,0.2,8.2,0.3c-0.1,1.4-0.1,2.1-0.1,3.5
	c-8.3-0.3-12.5-0.4-20.8-0.6c0-1.4,0-2.1,0.1-3.5c3.3,0.1,5,0.1,8.3,0.2c0.3-11,0.6-21.9,0.9-32.9c-3.3-0.1-4.9-0.1-8.1-0.2
	c0-1.4,0-2.1,0.1-3.5C320.9-0.7,323.5-0.6,328.6-0.4z"/>
<path class="st10" d="M357.3,12.7c4.4,0.3,7.9,2.1,9.6,5.2c1.2,2.2,1.1,4.3,0.9,6.6c-0.5,6.8-0.7,10.2-1.2,16.9
	c-1.7-0.1-2.5-0.2-4.1-0.3c0.1-1.2,0.1-1.8,0.2-3c-3.2,2.2-6.8,3.3-10.2,3.1c-5.8-0.3-9.2-4.2-9-8.2c0.1-3,2.3-6.1,6.8-7.5
	c3.6-1.1,8.1-0.8,12.2-0.5c0.4,0,0.5,0,0.9,0.1c0-0.4,0-0.6,0.1-1c0.1-1.4,0.2-3.2-0.6-4.8c-0.7-1.3-2.3-2.8-5.7-3
	c-2.6-0.2-5.9,0.4-8.3,2.6c-0.8-1.1-1.2-1.7-2.1-2.9C349.8,13.5,353.5,12.5,357.3,12.7z M362.5,28.2c-2.9-0.2-6.7-0.6-9.2-0.1
	c-3.6,0.6-5.1,2.8-5.2,4.8c-0.1,2.4,1.9,4.8,5.6,5.1c3.6,0.2,6.4-1.8,7.5-2.8c2-1.8,2.1-3.6,2.2-5c0-0.7,0.1-1.1,0.1-1.8
	C363.1,28.3,362.9,28.3,362.5,28.2z"/>
<path class="st10" d="M381.1,15c0,0.5-0.3,0.8-0.4,1.3c0,0.2,0,0.3,0.1,0.5c2.7,8.3,4,12.5,6.5,20.8c2.6-5.7,4-8.5,6.7-14.2
	c1.1-2.3,2.1-4.6,2.8-7.1c1.9,0.2,2.8,0.3,4.7,0.5c-1.1,2.6-2.3,5.1-3.6,7.6c-4.4,8.7-6.5,13-10.8,21.7c-0.7,1.5-1.4,2.9-2.8,4.1
	c-2,1.9-4.7,2.6-7.1,2.4c-2.3-0.2-4.3-1.1-5.8-2.7c1-1.5,1.5-2.2,2.5-3.7c0.3,0.3,0.3,0.7,0.4,1c0.1,0.3,1.1,1.7,3.1,1.9
	c1.3,0.1,2.7-0.3,4-1.5c1-0.8,1.6-2,2.2-3c0.4-0.8,0.6-1.2,1.1-1.9c-3-9.4-6-18.8-9.2-28.1C377.7,14.7,378.8,14.8,381.1,15z"/>
<path class="st10" d="M429.9,29.2c0.1,1.6-0.1,3.4-0.5,5.2c-7.9-1-11.9-1.5-19.8-2.3c-0.6,8.2,4.6,10.8,8.3,11.2
	c2.8,0.3,5.5-0.4,7.6-2.2c0.8,1,1.3,1.6,2.1,2.6c-2.7,2.5-6.5,3.5-10.4,3c-7.5-0.9-12.8-6.3-11.8-15.4c1-10,7.8-14,14.6-13.2
	C424.5,18.7,429.5,21.7,429.9,29.2z M425.5,30.6c1.1-4.3-1.7-8.6-6.3-9.2c-3-0.4-7.6,1-9.1,7.4C416.2,29.4,419.3,29.8,425.5,30.6z"
	/>
<path class="st10" d="M445.6,22.1c-0.4,2.1-0.5,3.1-0.9,5.2c2.4-3.6,6.9-5,11-4.4c3.2,0.5,5.6,2.1,7.1,4.1c-1.1,1.5-1.6,2.3-2.7,3.8
	c-0.4-0.5-0.5-1-0.8-1.5c-0.6-1.1-2-2.4-4.3-2.7c-2-0.3-5.5-0.1-8.6,3.4c-2.3,2.6-2.6,4.4-2.9,6.1c-0.7,5.3-1.1,7.9-1.9,13.2
	c-1.7-0.2-2.6-0.4-4.4-0.6c1.5-10.9,2.2-16.3,3.7-27.2C442.8,21.8,443.7,21.9,445.6,22.1z"/>
</svg>
