<?xml version="1.0" encoding="utf-8"?>
<!-- Generator: Adobe Illustrator 19.0.0, SVG Export Plug-In . SVG Version: 6.00 Build 0)  -->
<svg version="1.1" id="Layer_1" xmlns="http://www.w3.org/2000/svg" xmlns:xlink="http://www.w3.org/1999/xlink" x="0px" y="0px"
	 viewBox="0 0 72 85" style="enable-background:new 0 0 72 85;" xml:space="preserve">
<style type="text/css">
	.st0{fill:#FEF100;}
</style>
<path class="st0" d="M0,42.5C0,37.3,0,32,0,26.8c0-0.5,0.1-0.6,0.6-0.6c1.8,0,3.6,0,5.4,0c0.5,0,0.6-0.2,0.6-0.6c0-3.9,0-7.8,0-11.7
	c0-0.7,0-0.7,0.8-0.7c1.7,0,3.5,0,5.2,0c0.5,0,0.6-0.2,0.6-0.6c0-1.8,0-3.6,0-5.4c0-0.5,0.1-0.6,0.6-0.6c4,0,7.9,0,11.9,0
	c0.5,0,0.6-0.1,0.6-0.6c0-1.8,0-3.6,0-5.4c0-0.4,0.1-0.5,0.5-0.5c8.4,0,16.7,0,25.1,0c0.4,0,0.6,0.1,0.6,0.6c0,1.8,0,3.6,0,5.5
	c0,0.4,0.1,0.5,0.5,0.5c4,0,8,0,11.9,0c0.5,0,0.7,0.2,0.6,0.7c0,1.7,0,3.5,0,5.2c0,0.6,0.2,0.7,0.7,0.7c1.8,0,3.6,0,5.4,0
	c0.4,0,0.5,0.1,0.5,0.5c0,4,0,8,0,12.1c0,0.5-0.2,0.5-0.6,0.5c-4,0-7.9,0-11.9,0c-0.5,0-0.7,0.1-0.7,0.7c0,1.8,0,3.6,0,5.4
	c0,0.5-0.1,0.6-0.6,0.6c-6.1,0-12.3,0-18.4,0c-0.5,0-0.7,0.1-0.7,0.6c0,1.8,0,3.6,0,5.4c0,0.4-0.1,0.6-0.6,0.6c-4,0-8,0-11.9,0
	c-0.5,0-0.6,0.1-0.6,0.6c0,1.8,0,3.6,0,5.4c0,0.6,0.2,0.6,0.7,0.6c3.9,0,7.9,0,11.8,0c0.5,0,0.6,0.1,0.6,0.6c0,1.8,0,3.6,0,5.4
	c0,0.5,0.1,0.6,0.6,0.6c6.1,0,12.3,0,18.4,0c0.5,0,0.6,0.1,0.6,0.6c0,1.8,0,3.6,0,5.4c0,0.5,0.1,0.6,0.6,0.6c4,0,8,0,11.9,0
	c0.5,0,0.6,0.1,0.6,0.6c0,4,0,7.9,0,11.9c0,0.5-0.1,0.6-0.6,0.6c-1.8,0-3.6,0-5.4,0c-0.4,0-0.5,0.1-0.5,0.5c0,1.8,0,3.6,0,5.5
	c0,0.4-0.1,0.6-0.6,0.6c-4,0-8,0-11.9,0c-0.5,0-0.6,0.1-0.6,0.6c0,1.8,0,3.6,0,5.5c0,0.4-0.1,0.5-0.5,0.5c-8.4,0-16.8,0-25.2,0
	c-0.4,0-0.5-0.2-0.5-0.5c0-1.8,0-3.6,0-5.4c0-0.5-0.1-0.6-0.6-0.6c-4,0-7.9,0-11.9,0c-0.5,0-0.6-0.1-0.6-0.6c0-1.8,0-3.6,0-5.5
	c0-0.4-0.1-0.5-0.5-0.5c-1.8,0-3.6,0-5.5,0c-0.5,0-0.6-0.1-0.6-0.6c0-3.9,0-7.9,0-11.8c0-0.6-0.2-0.7-0.7-0.7c-1.8,0-3.6,0-5.4,0
	c-0.4,0-0.5-0.1-0.5-0.5C0,53.1,0,47.8,0,42.5z"/>
</svg>
